<mxfile host="app.diagrams.net" agent="Mozilla/5.0 (Windows NT 10.0; Win64; x64) AppleWebKit/537.36 (KHTML, like Gecko) Chrome/136.0.0.0 Safari/537.36" version="27.0.4" pages="8">
  <diagram name="Artist" id="7k_qqXzVLM_rFQDikKqZ">
    <mxGraphModel dx="800" dy="463" grid="1" gridSize="10" guides="1" tooltips="1" connect="1" arrows="1" fold="1" page="1" pageScale="1" pageWidth="827" pageHeight="1169" math="0" shadow="0">
      <root>
        <mxCell id="0" />
        <mxCell id="1" parent="0" />
        <mxCell id="-0CRxqcSasOdcpKEyFg3-1" value="" style="group" parent="1" vertex="1" connectable="0">
          <mxGeometry x="44" y="168" width="120" height="120" as="geometry" />
        </mxCell>
        <mxCell id="lfFn9-WfCf2i_I200h7F-1" value="" style="ellipse;whiteSpace=wrap;html=1;aspect=fixed;" parent="-0CRxqcSasOdcpKEyFg3-1" vertex="1">
          <mxGeometry width="120" height="120" as="geometry" />
        </mxCell>
        <mxCell id="lfFn9-WfCf2i_I200h7F-16" value="1" style="ellipse;whiteSpace=wrap;html=1;aspect=fixed;" parent="-0CRxqcSasOdcpKEyFg3-1" vertex="1">
          <mxGeometry x="35" width="50" height="50" as="geometry" />
        </mxCell>
        <mxCell id="lfFn9-WfCf2i_I200h7F-26" value="Леонардо да Винчи" style="text;html=1;align=center;verticalAlign=middle;whiteSpace=wrap;rounded=0;" parent="-0CRxqcSasOdcpKEyFg3-1" vertex="1">
          <mxGeometry x="15" y="60" width="90" height="30" as="geometry" />
        </mxCell>
        <mxCell id="-0CRxqcSasOdcpKEyFg3-3" value="" style="group" parent="1" vertex="1" connectable="0">
          <mxGeometry x="194" y="160" width="120" height="120" as="geometry" />
        </mxCell>
        <mxCell id="lfFn9-WfCf2i_I200h7F-8" value="" style="ellipse;whiteSpace=wrap;html=1;aspect=fixed;" parent="-0CRxqcSasOdcpKEyFg3-3" vertex="1">
          <mxGeometry width="120" height="120" as="geometry" />
        </mxCell>
        <mxCell id="lfFn9-WfCf2i_I200h7F-24" value="2" style="ellipse;whiteSpace=wrap;html=1;aspect=fixed;" parent="-0CRxqcSasOdcpKEyFg3-3" vertex="1">
          <mxGeometry x="35" width="50" height="50" as="geometry" />
        </mxCell>
        <mxCell id="lfFn9-WfCf2i_I200h7F-34" value="Винсент ван Гог" style="text;html=1;align=center;verticalAlign=middle;whiteSpace=wrap;rounded=0;" parent="-0CRxqcSasOdcpKEyFg3-3" vertex="1">
          <mxGeometry x="12.5" y="60" width="95" height="30" as="geometry" />
        </mxCell>
        <mxCell id="-0CRxqcSasOdcpKEyFg3-5" value="" style="group" parent="1" vertex="1" connectable="0">
          <mxGeometry x="348" y="160" width="120" height="120" as="geometry" />
        </mxCell>
        <mxCell id="lfFn9-WfCf2i_I200h7F-9" value="" style="ellipse;whiteSpace=wrap;html=1;aspect=fixed;" parent="-0CRxqcSasOdcpKEyFg3-5" vertex="1">
          <mxGeometry width="120" height="120" as="geometry" />
        </mxCell>
        <mxCell id="lfFn9-WfCf2i_I200h7F-23" value="3" style="ellipse;whiteSpace=wrap;html=1;aspect=fixed;" parent="-0CRxqcSasOdcpKEyFg3-5" vertex="1">
          <mxGeometry x="35" width="50" height="50" as="geometry" />
        </mxCell>
        <mxCell id="lfFn9-WfCf2i_I200h7F-33" value="Пабло Пикассо" style="text;html=1;align=center;verticalAlign=middle;whiteSpace=wrap;rounded=0;" parent="-0CRxqcSasOdcpKEyFg3-5" vertex="1">
          <mxGeometry x="22" y="60" width="76" height="30" as="geometry" />
        </mxCell>
        <mxCell id="-0CRxqcSasOdcpKEyFg3-6" value="" style="group" parent="1" vertex="1" connectable="0">
          <mxGeometry x="504" y="160" width="120" height="120" as="geometry" />
        </mxCell>
        <mxCell id="lfFn9-WfCf2i_I200h7F-10" value="" style="ellipse;whiteSpace=wrap;html=1;aspect=fixed;" parent="-0CRxqcSasOdcpKEyFg3-6" vertex="1">
          <mxGeometry width="120" height="120" as="geometry" />
        </mxCell>
        <mxCell id="lfFn9-WfCf2i_I200h7F-22" value="4" style="ellipse;whiteSpace=wrap;html=1;aspect=fixed;" parent="-0CRxqcSasOdcpKEyFg3-6" vertex="1">
          <mxGeometry x="35" width="50" height="50" as="geometry" />
        </mxCell>
        <mxCell id="lfFn9-WfCf2i_I200h7F-32" value="Клод Моне" style="text;html=1;align=center;verticalAlign=middle;whiteSpace=wrap;rounded=0;" parent="-0CRxqcSasOdcpKEyFg3-6" vertex="1">
          <mxGeometry x="17.5" y="60" width="85" height="30" as="geometry" />
        </mxCell>
        <mxCell id="-0CRxqcSasOdcpKEyFg3-7" value="" style="group" parent="1" vertex="1" connectable="0">
          <mxGeometry x="664" y="160" width="120" height="120" as="geometry" />
        </mxCell>
        <mxCell id="lfFn9-WfCf2i_I200h7F-11" value="" style="ellipse;whiteSpace=wrap;html=1;aspect=fixed;" parent="-0CRxqcSasOdcpKEyFg3-7" vertex="1">
          <mxGeometry width="120" height="120" as="geometry" />
        </mxCell>
        <mxCell id="lfFn9-WfCf2i_I200h7F-21" value="5" style="ellipse;whiteSpace=wrap;html=1;aspect=fixed;" parent="-0CRxqcSasOdcpKEyFg3-7" vertex="1">
          <mxGeometry x="35" width="50" height="50" as="geometry" />
        </mxCell>
        <mxCell id="lfFn9-WfCf2i_I200h7F-31" value="Сальвадор Дали" style="text;html=1;align=center;verticalAlign=middle;whiteSpace=wrap;rounded=0;" parent="-0CRxqcSasOdcpKEyFg3-7" vertex="1">
          <mxGeometry x="30" y="60" width="60" height="30" as="geometry" />
        </mxCell>
        <mxCell id="-0CRxqcSasOdcpKEyFg3-8" value="" style="group" parent="1" vertex="1" connectable="0">
          <mxGeometry x="44" y="340" width="120" height="120" as="geometry" />
        </mxCell>
        <mxCell id="lfFn9-WfCf2i_I200h7F-7" value="" style="ellipse;whiteSpace=wrap;html=1;aspect=fixed;" parent="-0CRxqcSasOdcpKEyFg3-8" vertex="1">
          <mxGeometry width="120" height="120" as="geometry" />
        </mxCell>
        <mxCell id="lfFn9-WfCf2i_I200h7F-20" value="6" style="ellipse;whiteSpace=wrap;html=1;aspect=fixed;" parent="-0CRxqcSasOdcpKEyFg3-8" vertex="1">
          <mxGeometry x="35" width="50" height="50" as="geometry" />
        </mxCell>
        <mxCell id="lfFn9-WfCf2i_I200h7F-30" value="Рембрандт" style="text;html=1;align=center;verticalAlign=middle;whiteSpace=wrap;rounded=0;" parent="-0CRxqcSasOdcpKEyFg3-8" vertex="1">
          <mxGeometry x="10" y="60" width="110" height="30" as="geometry" />
        </mxCell>
        <mxCell id="-0CRxqcSasOdcpKEyFg3-9" value="" style="group" parent="1" vertex="1" connectable="0">
          <mxGeometry x="194" y="340" width="120" height="120" as="geometry" />
        </mxCell>
        <mxCell id="lfFn9-WfCf2i_I200h7F-6" value="" style="ellipse;whiteSpace=wrap;html=1;aspect=fixed;" parent="-0CRxqcSasOdcpKEyFg3-9" vertex="1">
          <mxGeometry width="120" height="120" as="geometry" />
        </mxCell>
        <mxCell id="lfFn9-WfCf2i_I200h7F-19" value="7" style="ellipse;whiteSpace=wrap;html=1;aspect=fixed;" parent="-0CRxqcSasOdcpKEyFg3-9" vertex="1">
          <mxGeometry x="35" width="50" height="50" as="geometry" />
        </mxCell>
        <mxCell id="lfFn9-WfCf2i_I200h7F-29" value="Микеланджело" style="text;html=1;align=center;verticalAlign=middle;whiteSpace=wrap;rounded=0;" parent="-0CRxqcSasOdcpKEyFg3-9" vertex="1">
          <mxGeometry x="25" y="60" width="75" height="30" as="geometry" />
        </mxCell>
        <mxCell id="-0CRxqcSasOdcpKEyFg3-12" value="" style="group" parent="1" vertex="1" connectable="0">
          <mxGeometry x="348" y="340" width="120" height="120" as="geometry" />
        </mxCell>
        <mxCell id="lfFn9-WfCf2i_I200h7F-14" value="" style="ellipse;whiteSpace=wrap;html=1;aspect=fixed;" parent="-0CRxqcSasOdcpKEyFg3-12" vertex="1">
          <mxGeometry width="120" height="120" as="geometry" />
        </mxCell>
        <mxCell id="lfFn9-WfCf2i_I200h7F-18" value="8" style="ellipse;whiteSpace=wrap;html=1;aspect=fixed;" parent="-0CRxqcSasOdcpKEyFg3-12" vertex="1">
          <mxGeometry x="37" y="2" width="46" height="46" as="geometry" />
        </mxCell>
        <mxCell id="lfFn9-WfCf2i_I200h7F-28" value="Эдвард Мунк" style="text;html=1;align=center;verticalAlign=middle;whiteSpace=wrap;rounded=0;" parent="-0CRxqcSasOdcpKEyFg3-12" vertex="1">
          <mxGeometry x="19" y="60" width="81" height="30" as="geometry" />
        </mxCell>
        <mxCell id="-0CRxqcSasOdcpKEyFg3-13" value="" style="group" parent="1" vertex="1" connectable="0">
          <mxGeometry x="504" y="340" width="120" height="120" as="geometry" />
        </mxCell>
        <mxCell id="lfFn9-WfCf2i_I200h7F-13" value="" style="ellipse;whiteSpace=wrap;html=1;aspect=fixed;" parent="-0CRxqcSasOdcpKEyFg3-13" vertex="1">
          <mxGeometry width="120" height="120" as="geometry" />
        </mxCell>
        <mxCell id="lfFn9-WfCf2i_I200h7F-17" value="9" style="ellipse;whiteSpace=wrap;html=1;aspect=fixed;" parent="-0CRxqcSasOdcpKEyFg3-13" vertex="1">
          <mxGeometry x="35" width="50" height="50" as="geometry" />
        </mxCell>
        <mxCell id="lfFn9-WfCf2i_I200h7F-27" value="Казимир Малевич" style="text;html=1;align=center;verticalAlign=middle;whiteSpace=wrap;rounded=0;" parent="-0CRxqcSasOdcpKEyFg3-13" vertex="1">
          <mxGeometry x="30" y="60" width="60" height="30" as="geometry" />
        </mxCell>
        <mxCell id="-0CRxqcSasOdcpKEyFg3-14" value="" style="group" parent="1" vertex="1" connectable="0">
          <mxGeometry x="664" y="340" width="120" height="120" as="geometry" />
        </mxCell>
        <mxCell id="lfFn9-WfCf2i_I200h7F-12" value="" style="ellipse;whiteSpace=wrap;html=1;aspect=fixed;" parent="-0CRxqcSasOdcpKEyFg3-14" vertex="1">
          <mxGeometry width="120" height="120" as="geometry" />
        </mxCell>
        <mxCell id="lfFn9-WfCf2i_I200h7F-25" value="10" style="ellipse;whiteSpace=wrap;html=1;aspect=fixed;" parent="-0CRxqcSasOdcpKEyFg3-14" vertex="1">
          <mxGeometry x="35" width="50" height="50" as="geometry" />
        </mxCell>
        <mxCell id="lfFn9-WfCf2i_I200h7F-35" value="Иван Шишкин" style="text;html=1;align=center;verticalAlign=middle;whiteSpace=wrap;rounded=0;" parent="-0CRxqcSasOdcpKEyFg3-14" vertex="1">
          <mxGeometry x="10" y="60" width="105" height="30" as="geometry" />
        </mxCell>
      </root>
    </mxGraphModel>
  </diagram>
  <diagram name=" Gallery" id="VuRFlygVJ8VWxxK1keLV">
    <mxGraphModel dx="800" dy="463" grid="1" gridSize="10" guides="1" tooltips="1" connect="1" arrows="1" fold="1" page="1" pageScale="1" pageWidth="827" pageHeight="1169" math="0" shadow="0">
      <root>
        <mxCell id="0" />
        <mxCell id="1" parent="0" />
        <mxCell id="CjUNFGmAacC76h2Ob6ld-44" value="" style="group" parent="1" vertex="1" connectable="0">
          <mxGeometry x="760" y="420" width="150" height="100" as="geometry" />
        </mxCell>
        <mxCell id="CjUNFGmAacC76h2Ob6ld-45" value="" style="rounded=0;whiteSpace=wrap;html=1;" parent="CjUNFGmAacC76h2Ob6ld-44" vertex="1">
          <mxGeometry width="150" height="100" as="geometry" />
        </mxCell>
        <mxCell id="CjUNFGmAacC76h2Ob6ld-46" value="10" style="rounded=0;whiteSpace=wrap;html=1;" parent="CjUNFGmAacC76h2Ob6ld-44" vertex="1">
          <mxGeometry x="50" width="50" height="30" as="geometry" />
        </mxCell>
        <mxCell id="CjUNFGmAacC76h2Ob6ld-47" value="&lt;font style=&quot;font-size: 14px;&quot;&gt;Эрмитаж&lt;/font&gt;" style="text;html=1;align=center;verticalAlign=middle;whiteSpace=wrap;rounded=0;" parent="CjUNFGmAacC76h2Ob6ld-44" vertex="1">
          <mxGeometry x="41.66666666666667" y="40" width="66.66666666666667" height="45" as="geometry" />
        </mxCell>
        <mxCell id="CjUNFGmAacC76h2Ob6ld-48" value="" style="group" parent="1" vertex="1" connectable="0">
          <mxGeometry x="760" y="290" width="150" height="100" as="geometry" />
        </mxCell>
        <mxCell id="CjUNFGmAacC76h2Ob6ld-49" value="" style="rounded=0;whiteSpace=wrap;html=1;" parent="CjUNFGmAacC76h2Ob6ld-48" vertex="1">
          <mxGeometry width="150" height="100" as="geometry" />
        </mxCell>
        <mxCell id="CjUNFGmAacC76h2Ob6ld-50" value="5" style="rounded=0;whiteSpace=wrap;html=1;" parent="CjUNFGmAacC76h2Ob6ld-48" vertex="1">
          <mxGeometry x="50" width="50" height="30" as="geometry" />
        </mxCell>
        <mxCell id="CjUNFGmAacC76h2Ob6ld-51" value="&lt;font style=&quot;font-size: 14px;&quot;&gt;Музей Дали&lt;/font&gt;" style="text;html=1;align=center;verticalAlign=middle;whiteSpace=wrap;rounded=0;" parent="CjUNFGmAacC76h2Ob6ld-48" vertex="1">
          <mxGeometry x="41.66666666666667" y="40" width="66.66666666666667" height="45" as="geometry" />
        </mxCell>
        <mxCell id="CjUNFGmAacC76h2Ob6ld-52" value="" style="group" parent="1" vertex="1" connectable="0">
          <mxGeometry x="590" y="420" width="150" height="100" as="geometry" />
        </mxCell>
        <mxCell id="CjUNFGmAacC76h2Ob6ld-53" value="" style="rounded=0;whiteSpace=wrap;html=1;" parent="CjUNFGmAacC76h2Ob6ld-52" vertex="1">
          <mxGeometry width="150" height="100" as="geometry" />
        </mxCell>
        <mxCell id="CjUNFGmAacC76h2Ob6ld-54" value="9" style="rounded=0;whiteSpace=wrap;html=1;" parent="CjUNFGmAacC76h2Ob6ld-52" vertex="1">
          <mxGeometry x="50" width="50" height="30" as="geometry" />
        </mxCell>
        <mxCell id="CjUNFGmAacC76h2Ob6ld-55" value="&lt;font style=&quot;font-size: 14px;&quot;&gt;Третьяковская галерея&lt;/font&gt;" style="text;html=1;align=center;verticalAlign=middle;whiteSpace=wrap;rounded=0;" parent="CjUNFGmAacC76h2Ob6ld-52" vertex="1">
          <mxGeometry x="35.83" y="40" width="78.33" height="45" as="geometry" />
        </mxCell>
        <mxCell id="CjUNFGmAacC76h2Ob6ld-56" value="" style="group" parent="1" vertex="1" connectable="0">
          <mxGeometry x="590" y="290" width="150" height="100" as="geometry" />
        </mxCell>
        <mxCell id="CjUNFGmAacC76h2Ob6ld-57" value="" style="rounded=0;whiteSpace=wrap;html=1;" parent="CjUNFGmAacC76h2Ob6ld-56" vertex="1">
          <mxGeometry width="150" height="100" as="geometry" />
        </mxCell>
        <mxCell id="CjUNFGmAacC76h2Ob6ld-58" value="4" style="rounded=0;whiteSpace=wrap;html=1;" parent="CjUNFGmAacC76h2Ob6ld-56" vertex="1">
          <mxGeometry x="50" width="50" height="30" as="geometry" />
        </mxCell>
        <mxCell id="CjUNFGmAacC76h2Ob6ld-59" value="&lt;font style=&quot;font-size: 14px;&quot;&gt;Музей Орсе&lt;/font&gt;" style="text;html=1;align=center;verticalAlign=middle;whiteSpace=wrap;rounded=0;" parent="CjUNFGmAacC76h2Ob6ld-56" vertex="1">
          <mxGeometry x="41.66666666666667" y="40" width="66.66666666666667" height="45" as="geometry" />
        </mxCell>
        <mxCell id="CjUNFGmAacC76h2Ob6ld-60" value="" style="group" parent="1" vertex="1" connectable="0">
          <mxGeometry x="420" y="420" width="150" height="100" as="geometry" />
        </mxCell>
        <mxCell id="CjUNFGmAacC76h2Ob6ld-61" value="" style="rounded=0;whiteSpace=wrap;html=1;" parent="CjUNFGmAacC76h2Ob6ld-60" vertex="1">
          <mxGeometry width="150" height="100" as="geometry" />
        </mxCell>
        <mxCell id="CjUNFGmAacC76h2Ob6ld-62" value="8" style="rounded=0;whiteSpace=wrap;html=1;" parent="CjUNFGmAacC76h2Ob6ld-60" vertex="1">
          <mxGeometry x="50" width="50" height="30" as="geometry" />
        </mxCell>
        <mxCell id="CjUNFGmAacC76h2Ob6ld-63" value="&lt;span style=&quot;font-size: 14px;&quot;&gt;Музей Мунка&lt;/span&gt;" style="text;html=1;align=center;verticalAlign=middle;whiteSpace=wrap;rounded=0;" parent="CjUNFGmAacC76h2Ob6ld-60" vertex="1">
          <mxGeometry x="41.66666666666667" y="40" width="66.66666666666667" height="45" as="geometry" />
        </mxCell>
        <mxCell id="CjUNFGmAacC76h2Ob6ld-64" value="" style="group" parent="1" vertex="1" connectable="0">
          <mxGeometry x="250" y="420" width="150" height="100" as="geometry" />
        </mxCell>
        <mxCell id="CjUNFGmAacC76h2Ob6ld-65" value="" style="rounded=0;whiteSpace=wrap;html=1;" parent="CjUNFGmAacC76h2Ob6ld-64" vertex="1">
          <mxGeometry width="150" height="100" as="geometry" />
        </mxCell>
        <mxCell id="CjUNFGmAacC76h2Ob6ld-66" value="7" style="rounded=0;whiteSpace=wrap;html=1;" parent="CjUNFGmAacC76h2Ob6ld-64" vertex="1">
          <mxGeometry x="50" width="50" height="30" as="geometry" />
        </mxCell>
        <mxCell id="CjUNFGmAacC76h2Ob6ld-67" value="&lt;font style=&quot;font-size: 14px;&quot;&gt;Альбертина&lt;/font&gt;" style="text;html=1;align=center;verticalAlign=middle;whiteSpace=wrap;rounded=0;" parent="CjUNFGmAacC76h2Ob6ld-64" vertex="1">
          <mxGeometry x="30.830000000000002" y="40" width="88.33" height="45" as="geometry" />
        </mxCell>
        <mxCell id="CjUNFGmAacC76h2Ob6ld-68" value="" style="group" parent="1" vertex="1" connectable="0">
          <mxGeometry x="80" y="420" width="150" height="100" as="geometry" />
        </mxCell>
        <mxCell id="CjUNFGmAacC76h2Ob6ld-69" value="" style="rounded=0;whiteSpace=wrap;html=1;" parent="CjUNFGmAacC76h2Ob6ld-68" vertex="1">
          <mxGeometry width="150" height="100" as="geometry" />
        </mxCell>
        <mxCell id="CjUNFGmAacC76h2Ob6ld-70" value="6" style="rounded=0;whiteSpace=wrap;html=1;" parent="CjUNFGmAacC76h2Ob6ld-68" vertex="1">
          <mxGeometry x="50" width="50" height="30" as="geometry" />
        </mxCell>
        <mxCell id="CjUNFGmAacC76h2Ob6ld-71" value="&lt;span style=&quot;font-size: 14px;&quot;&gt;Рейксмюсеум&lt;/span&gt;" style="text;html=1;align=center;verticalAlign=middle;whiteSpace=wrap;rounded=0;" parent="CjUNFGmAacC76h2Ob6ld-68" vertex="1">
          <mxGeometry x="25.830000000000002" y="40" width="98.33" height="45" as="geometry" />
        </mxCell>
        <mxCell id="CjUNFGmAacC76h2Ob6ld-72" value="" style="group" parent="1" vertex="1" connectable="0">
          <mxGeometry x="420" y="290" width="150" height="100" as="geometry" />
        </mxCell>
        <mxCell id="CjUNFGmAacC76h2Ob6ld-73" value="" style="rounded=0;whiteSpace=wrap;html=1;" parent="CjUNFGmAacC76h2Ob6ld-72" vertex="1">
          <mxGeometry width="150" height="100" as="geometry" />
        </mxCell>
        <mxCell id="CjUNFGmAacC76h2Ob6ld-74" value="3" style="rounded=0;whiteSpace=wrap;html=1;" parent="CjUNFGmAacC76h2Ob6ld-72" vertex="1">
          <mxGeometry x="50" width="50" height="30" as="geometry" />
        </mxCell>
        <mxCell id="CjUNFGmAacC76h2Ob6ld-75" value="&lt;font style=&quot;font-size: 14px;&quot;&gt;Прадо&lt;/font&gt;" style="text;html=1;align=center;verticalAlign=middle;whiteSpace=wrap;rounded=0;" parent="CjUNFGmAacC76h2Ob6ld-72" vertex="1">
          <mxGeometry x="41.66666666666667" y="40" width="66.66666666666667" height="45" as="geometry" />
        </mxCell>
        <mxCell id="CjUNFGmAacC76h2Ob6ld-76" value="" style="group" parent="1" vertex="1" connectable="0">
          <mxGeometry x="250" y="290" width="150" height="100" as="geometry" />
        </mxCell>
        <mxCell id="CjUNFGmAacC76h2Ob6ld-77" value="" style="rounded=0;whiteSpace=wrap;html=1;" parent="CjUNFGmAacC76h2Ob6ld-76" vertex="1">
          <mxGeometry width="150" height="100" as="geometry" />
        </mxCell>
        <mxCell id="CjUNFGmAacC76h2Ob6ld-78" value="2" style="rounded=0;whiteSpace=wrap;html=1;" parent="CjUNFGmAacC76h2Ob6ld-76" vertex="1">
          <mxGeometry x="50" width="50" height="30" as="geometry" />
        </mxCell>
        <mxCell id="CjUNFGmAacC76h2Ob6ld-79" value="&lt;font style=&quot;font-size: 14px;&quot;&gt;Музей ван Гога&lt;/font&gt;" style="text;html=1;align=center;verticalAlign=middle;whiteSpace=wrap;rounded=0;" parent="CjUNFGmAacC76h2Ob6ld-76" vertex="1">
          <mxGeometry x="35.83" y="40" width="78.33" height="45" as="geometry" />
        </mxCell>
        <mxCell id="CjUNFGmAacC76h2Ob6ld-80" value="" style="group" parent="1" vertex="1" connectable="0">
          <mxGeometry x="80" y="290" width="150" height="100" as="geometry" />
        </mxCell>
        <mxCell id="CjUNFGmAacC76h2Ob6ld-81" value="" style="rounded=0;whiteSpace=wrap;html=1;" parent="CjUNFGmAacC76h2Ob6ld-80" vertex="1">
          <mxGeometry width="150" height="100" as="geometry" />
        </mxCell>
        <mxCell id="CjUNFGmAacC76h2Ob6ld-82" value="1" style="rounded=0;whiteSpace=wrap;html=1;" parent="CjUNFGmAacC76h2Ob6ld-80" vertex="1">
          <mxGeometry x="50" width="50" height="30" as="geometry" />
        </mxCell>
        <mxCell id="CjUNFGmAacC76h2Ob6ld-83" value="&lt;font style=&quot;font-size: 14px;&quot;&gt;Лувр&lt;/font&gt;" style="text;html=1;align=center;verticalAlign=middle;whiteSpace=wrap;rounded=0;" parent="CjUNFGmAacC76h2Ob6ld-80" vertex="1">
          <mxGeometry x="41.66666666666667" y="40" width="66.66666666666667" height="45" as="geometry" />
        </mxCell>
      </root>
    </mxGraphModel>
  </diagram>
  <diagram name="ArtStyle" id="oez_wkt2Z_ZBZWKJv_Wc">
    <mxGraphModel dx="800" dy="463" grid="1" gridSize="10" guides="1" tooltips="1" connect="1" arrows="1" fold="1" page="1" pageScale="1" pageWidth="827" pageHeight="1169" math="0" shadow="0">
      <root>
        <mxCell id="0" />
        <mxCell id="1" parent="0" />
        <mxCell id="aObQVVCJYYxxFz0ISDNs-1" value="" style="group" vertex="1" connectable="0" parent="1">
          <mxGeometry x="240" y="120" width="160" height="115" as="geometry" />
        </mxCell>
        <mxCell id="3hqpzQUNpzhv11L0OUDn-1" value="" style="ellipse;shape=cloud;whiteSpace=wrap;html=1;" parent="aObQVVCJYYxxFz0ISDNs-1" vertex="1">
          <mxGeometry y="5" width="160" height="110" as="geometry" />
        </mxCell>
        <mxCell id="3hqpzQUNpzhv11L0OUDn-3" value="2" style="ellipse;shape=cloud;whiteSpace=wrap;html=1;" parent="aObQVVCJYYxxFz0ISDNs-1" vertex="1">
          <mxGeometry x="32.72999999999999" width="67.27" height="60" as="geometry" />
        </mxCell>
        <mxCell id="K5_EZUALUggJ9JoFMOV1-1" value="Постимпрессиониз" style="text;html=1;align=center;verticalAlign=middle;whiteSpace=wrap;rounded=0;" parent="aObQVVCJYYxxFz0ISDNs-1" vertex="1">
          <mxGeometry x="60" y="55" width="60" height="30" as="geometry" />
        </mxCell>
        <mxCell id="aObQVVCJYYxxFz0ISDNs-2" value="" style="group" vertex="1" connectable="0" parent="1">
          <mxGeometry x="80" y="120" width="160" height="115" as="geometry" />
        </mxCell>
        <mxCell id="aObQVVCJYYxxFz0ISDNs-3" value="" style="ellipse;shape=cloud;whiteSpace=wrap;html=1;" vertex="1" parent="aObQVVCJYYxxFz0ISDNs-2">
          <mxGeometry y="5" width="160" height="110" as="geometry" />
        </mxCell>
        <mxCell id="aObQVVCJYYxxFz0ISDNs-4" value="1" style="ellipse;shape=cloud;whiteSpace=wrap;html=1;" vertex="1" parent="aObQVVCJYYxxFz0ISDNs-2">
          <mxGeometry x="32.72999999999999" width="67.27" height="60" as="geometry" />
        </mxCell>
        <mxCell id="aObQVVCJYYxxFz0ISDNs-5" value="Ренессанс" style="text;html=1;align=center;verticalAlign=middle;whiteSpace=wrap;rounded=0;" vertex="1" parent="aObQVVCJYYxxFz0ISDNs-2">
          <mxGeometry x="50" y="55" width="60" height="30" as="geometry" />
        </mxCell>
        <mxCell id="aObQVVCJYYxxFz0ISDNs-6" value="" style="group" vertex="1" connectable="0" parent="1">
          <mxGeometry x="240" y="235" width="160" height="115" as="geometry" />
        </mxCell>
        <mxCell id="aObQVVCJYYxxFz0ISDNs-7" value="" style="ellipse;shape=cloud;whiteSpace=wrap;html=1;" vertex="1" parent="aObQVVCJYYxxFz0ISDNs-6">
          <mxGeometry y="5" width="160" height="110" as="geometry" />
        </mxCell>
        <mxCell id="aObQVVCJYYxxFz0ISDNs-8" value="7" style="ellipse;shape=cloud;whiteSpace=wrap;html=1;" vertex="1" parent="aObQVVCJYYxxFz0ISDNs-6">
          <mxGeometry x="32.72999999999999" width="67.27" height="60" as="geometry" />
        </mxCell>
        <mxCell id="aObQVVCJYYxxFz0ISDNs-9" value="Экспрессионизм" style="text;html=1;align=center;verticalAlign=middle;whiteSpace=wrap;rounded=0;" vertex="1" parent="aObQVVCJYYxxFz0ISDNs-6">
          <mxGeometry x="50" y="55" width="60" height="30" as="geometry" />
        </mxCell>
        <mxCell id="aObQVVCJYYxxFz0ISDNs-10" value="" style="group" vertex="1" connectable="0" parent="1">
          <mxGeometry x="80" y="235" width="160" height="115" as="geometry" />
        </mxCell>
        <mxCell id="aObQVVCJYYxxFz0ISDNs-11" value="" style="ellipse;shape=cloud;whiteSpace=wrap;html=1;" vertex="1" parent="aObQVVCJYYxxFz0ISDNs-10">
          <mxGeometry y="5" width="160" height="110" as="geometry" />
        </mxCell>
        <mxCell id="aObQVVCJYYxxFz0ISDNs-12" value="6" style="ellipse;shape=cloud;whiteSpace=wrap;html=1;" vertex="1" parent="aObQVVCJYYxxFz0ISDNs-10">
          <mxGeometry x="32.72999999999999" width="67.27" height="60" as="geometry" />
        </mxCell>
        <mxCell id="aObQVVCJYYxxFz0ISDNs-13" value="Барокко" style="text;html=1;align=center;verticalAlign=middle;whiteSpace=wrap;rounded=0;" vertex="1" parent="aObQVVCJYYxxFz0ISDNs-10">
          <mxGeometry x="50" y="55" width="60" height="30" as="geometry" />
        </mxCell>
        <mxCell id="aObQVVCJYYxxFz0ISDNs-14" value="" style="group" vertex="1" connectable="0" parent="1">
          <mxGeometry x="400" y="120" width="160" height="115" as="geometry" />
        </mxCell>
        <mxCell id="aObQVVCJYYxxFz0ISDNs-15" value="" style="ellipse;shape=cloud;whiteSpace=wrap;html=1;" vertex="1" parent="aObQVVCJYYxxFz0ISDNs-14">
          <mxGeometry y="5" width="160" height="110" as="geometry" />
        </mxCell>
        <mxCell id="aObQVVCJYYxxFz0ISDNs-16" value="3" style="ellipse;shape=cloud;whiteSpace=wrap;html=1;" vertex="1" parent="aObQVVCJYYxxFz0ISDNs-14">
          <mxGeometry x="32.72999999999999" width="67.27" height="60" as="geometry" />
        </mxCell>
        <mxCell id="aObQVVCJYYxxFz0ISDNs-17" value="Кубизм" style="text;html=1;align=center;verticalAlign=middle;whiteSpace=wrap;rounded=0;" vertex="1" parent="aObQVVCJYYxxFz0ISDNs-14">
          <mxGeometry x="50" y="55" width="60" height="30" as="geometry" />
        </mxCell>
        <mxCell id="aObQVVCJYYxxFz0ISDNs-18" value="" style="group" vertex="1" connectable="0" parent="1">
          <mxGeometry x="560" y="120" width="160" height="115" as="geometry" />
        </mxCell>
        <mxCell id="aObQVVCJYYxxFz0ISDNs-19" value="" style="ellipse;shape=cloud;whiteSpace=wrap;html=1;" vertex="1" parent="aObQVVCJYYxxFz0ISDNs-18">
          <mxGeometry y="5" width="160" height="110" as="geometry" />
        </mxCell>
        <mxCell id="aObQVVCJYYxxFz0ISDNs-20" value="4" style="ellipse;shape=cloud;whiteSpace=wrap;html=1;" vertex="1" parent="aObQVVCJYYxxFz0ISDNs-18">
          <mxGeometry x="32.72999999999999" width="67.27" height="60" as="geometry" />
        </mxCell>
        <mxCell id="aObQVVCJYYxxFz0ISDNs-21" value="Импрессионизм" style="text;html=1;align=center;verticalAlign=middle;whiteSpace=wrap;rounded=0;" vertex="1" parent="aObQVVCJYYxxFz0ISDNs-18">
          <mxGeometry x="50" y="55" width="60" height="30" as="geometry" />
        </mxCell>
        <mxCell id="aObQVVCJYYxxFz0ISDNs-22" value="" style="group" vertex="1" connectable="0" parent="1">
          <mxGeometry x="400" y="235" width="160" height="115" as="geometry" />
        </mxCell>
        <mxCell id="aObQVVCJYYxxFz0ISDNs-23" value="" style="ellipse;shape=cloud;whiteSpace=wrap;html=1;" vertex="1" parent="aObQVVCJYYxxFz0ISDNs-22">
          <mxGeometry y="5" width="160" height="110" as="geometry" />
        </mxCell>
        <mxCell id="aObQVVCJYYxxFz0ISDNs-24" value="8" style="ellipse;shape=cloud;whiteSpace=wrap;html=1;" vertex="1" parent="aObQVVCJYYxxFz0ISDNs-22">
          <mxGeometry x="32.72999999999999" width="67.27" height="60" as="geometry" />
        </mxCell>
        <mxCell id="aObQVVCJYYxxFz0ISDNs-25" value="Супрематизм" style="text;html=1;align=center;verticalAlign=middle;whiteSpace=wrap;rounded=0;" vertex="1" parent="aObQVVCJYYxxFz0ISDNs-22">
          <mxGeometry x="50" y="55" width="60" height="30" as="geometry" />
        </mxCell>
        <mxCell id="aObQVVCJYYxxFz0ISDNs-26" value="" style="group" vertex="1" connectable="0" parent="1">
          <mxGeometry x="560" y="235" width="160" height="115" as="geometry" />
        </mxCell>
        <mxCell id="aObQVVCJYYxxFz0ISDNs-27" value="" style="ellipse;shape=cloud;whiteSpace=wrap;html=1;" vertex="1" parent="aObQVVCJYYxxFz0ISDNs-26">
          <mxGeometry y="5" width="160" height="110" as="geometry" />
        </mxCell>
        <mxCell id="aObQVVCJYYxxFz0ISDNs-28" value="9" style="ellipse;shape=cloud;whiteSpace=wrap;html=1;" vertex="1" parent="aObQVVCJYYxxFz0ISDNs-26">
          <mxGeometry x="32.72999999999999" width="67.27" height="60" as="geometry" />
        </mxCell>
        <mxCell id="aObQVVCJYYxxFz0ISDNs-29" value="Реализм" style="text;html=1;align=center;verticalAlign=middle;whiteSpace=wrap;rounded=0;" vertex="1" parent="aObQVVCJYYxxFz0ISDNs-26">
          <mxGeometry x="50" y="55" width="60" height="30" as="geometry" />
        </mxCell>
        <mxCell id="aObQVVCJYYxxFz0ISDNs-30" value="" style="group" vertex="1" connectable="0" parent="1">
          <mxGeometry x="720" y="120" width="160" height="115" as="geometry" />
        </mxCell>
        <mxCell id="aObQVVCJYYxxFz0ISDNs-31" value="" style="ellipse;shape=cloud;whiteSpace=wrap;html=1;" vertex="1" parent="aObQVVCJYYxxFz0ISDNs-30">
          <mxGeometry y="5" width="160" height="110" as="geometry" />
        </mxCell>
        <mxCell id="aObQVVCJYYxxFz0ISDNs-32" value="5" style="ellipse;shape=cloud;whiteSpace=wrap;html=1;" vertex="1" parent="aObQVVCJYYxxFz0ISDNs-30">
          <mxGeometry x="32.72999999999999" width="67.27" height="60" as="geometry" />
        </mxCell>
        <mxCell id="aObQVVCJYYxxFz0ISDNs-33" value="Сюрреализм" style="text;html=1;align=center;verticalAlign=middle;whiteSpace=wrap;rounded=0;" vertex="1" parent="aObQVVCJYYxxFz0ISDNs-30">
          <mxGeometry x="50" y="55" width="60" height="30" as="geometry" />
        </mxCell>
        <mxCell id="aObQVVCJYYxxFz0ISDNs-34" value="" style="group" vertex="1" connectable="0" parent="1">
          <mxGeometry x="720" y="240" width="160" height="115" as="geometry" />
        </mxCell>
        <mxCell id="aObQVVCJYYxxFz0ISDNs-35" value="" style="ellipse;shape=cloud;whiteSpace=wrap;html=1;" vertex="1" parent="aObQVVCJYYxxFz0ISDNs-34">
          <mxGeometry y="5" width="160" height="110" as="geometry" />
        </mxCell>
        <mxCell id="aObQVVCJYYxxFz0ISDNs-36" value="10" style="ellipse;shape=cloud;whiteSpace=wrap;html=1;" vertex="1" parent="aObQVVCJYYxxFz0ISDNs-34">
          <mxGeometry x="32.72999999999999" width="67.27" height="60" as="geometry" />
        </mxCell>
        <mxCell id="aObQVVCJYYxxFz0ISDNs-37" value="Символизм" style="text;html=1;align=center;verticalAlign=middle;whiteSpace=wrap;rounded=0;" vertex="1" parent="aObQVVCJYYxxFz0ISDNs-34">
          <mxGeometry x="50" y="55" width="60" height="30" as="geometry" />
        </mxCell>
      </root>
    </mxGraphModel>
  </diagram>
  <diagram name="Country" id="03TvXpu_unDDVupld0VG">
    <mxGraphModel dx="800" dy="463" grid="1" gridSize="10" guides="1" tooltips="1" connect="1" arrows="1" fold="1" page="1" pageScale="1" pageWidth="827" pageHeight="1169" math="0" shadow="0">
      <root>
        <mxCell id="0" />
        <mxCell id="1" parent="0" />
        <mxCell id="mYAvGEyavj_oluxCG1rr-8" value="" style="group" parent="1" vertex="1" connectable="0">
          <mxGeometry x="80" y="150" width="130" height="90" as="geometry" />
        </mxCell>
        <mxCell id="mYAvGEyavj_oluxCG1rr-1" value="" style="triangle;whiteSpace=wrap;html=1;rotation=-90;" parent="mYAvGEyavj_oluxCG1rr-8" vertex="1">
          <mxGeometry x="20" y="-20" width="90" height="130" as="geometry" />
        </mxCell>
        <mxCell id="mYAvGEyavj_oluxCG1rr-5" value="" style="group" parent="mYAvGEyavj_oluxCG1rr-8" vertex="1" connectable="0">
          <mxGeometry x="35" width="60" height="41.110000000000014" as="geometry" />
        </mxCell>
        <mxCell id="mYAvGEyavj_oluxCG1rr-3" value="" style="triangle;whiteSpace=wrap;html=1;rotation=-90;" parent="mYAvGEyavj_oluxCG1rr-5" vertex="1">
          <mxGeometry x="10" y="-8.889999999999986" width="40" height="57.78" as="geometry" />
        </mxCell>
        <mxCell id="mYAvGEyavj_oluxCG1rr-4" value="1" style="text;html=1;align=center;verticalAlign=middle;whiteSpace=wrap;rounded=0;" parent="mYAvGEyavj_oluxCG1rr-5" vertex="1">
          <mxGeometry y="11.110000000000014" width="60" height="30" as="geometry" />
        </mxCell>
        <mxCell id="mYAvGEyavj_oluxCG1rr-7" value="Италия" style="text;html=1;align=center;verticalAlign=middle;whiteSpace=wrap;rounded=0;" parent="mYAvGEyavj_oluxCG1rr-8" vertex="1">
          <mxGeometry x="32.5" y="50" width="65" height="30" as="geometry" />
        </mxCell>
        <mxCell id="mYAvGEyavj_oluxCG1rr-32" value="" style="group" parent="1" vertex="1" connectable="0">
          <mxGeometry x="220" y="150" width="130" height="90" as="geometry" />
        </mxCell>
        <mxCell id="mYAvGEyavj_oluxCG1rr-33" value="" style="triangle;whiteSpace=wrap;html=1;rotation=-90;" parent="mYAvGEyavj_oluxCG1rr-32" vertex="1">
          <mxGeometry x="20" y="-20" width="90" height="130" as="geometry" />
        </mxCell>
        <mxCell id="mYAvGEyavj_oluxCG1rr-34" value="" style="group" parent="mYAvGEyavj_oluxCG1rr-32" vertex="1" connectable="0">
          <mxGeometry x="35" width="60" height="41.110000000000014" as="geometry" />
        </mxCell>
        <mxCell id="mYAvGEyavj_oluxCG1rr-35" value="" style="triangle;whiteSpace=wrap;html=1;rotation=-90;" parent="mYAvGEyavj_oluxCG1rr-34" vertex="1">
          <mxGeometry x="10" y="-8.889999999999986" width="40" height="57.78" as="geometry" />
        </mxCell>
        <mxCell id="mYAvGEyavj_oluxCG1rr-36" value="2" style="text;html=1;align=center;verticalAlign=middle;whiteSpace=wrap;rounded=0;" parent="mYAvGEyavj_oluxCG1rr-34" vertex="1">
          <mxGeometry y="11.110000000000014" width="60" height="30" as="geometry" />
        </mxCell>
        <mxCell id="mYAvGEyavj_oluxCG1rr-37" value="Нидерланды" style="text;html=1;align=center;verticalAlign=middle;whiteSpace=wrap;rounded=0;" parent="mYAvGEyavj_oluxCG1rr-32" vertex="1">
          <mxGeometry x="32.5" y="50" width="65" height="30" as="geometry" />
        </mxCell>
        <mxCell id="mYAvGEyavj_oluxCG1rr-38" value="" style="group" parent="1" vertex="1" connectable="0">
          <mxGeometry x="360" y="150" width="130" height="90" as="geometry" />
        </mxCell>
        <mxCell id="mYAvGEyavj_oluxCG1rr-39" value="" style="triangle;whiteSpace=wrap;html=1;rotation=-90;" parent="mYAvGEyavj_oluxCG1rr-38" vertex="1">
          <mxGeometry x="20" y="-20" width="90" height="130" as="geometry" />
        </mxCell>
        <mxCell id="mYAvGEyavj_oluxCG1rr-40" value="" style="group" parent="mYAvGEyavj_oluxCG1rr-38" vertex="1" connectable="0">
          <mxGeometry x="35" width="60" height="41.110000000000014" as="geometry" />
        </mxCell>
        <mxCell id="mYAvGEyavj_oluxCG1rr-41" value="" style="triangle;whiteSpace=wrap;html=1;rotation=-90;" parent="mYAvGEyavj_oluxCG1rr-40" vertex="1">
          <mxGeometry x="10" y="-8.889999999999986" width="40" height="57.78" as="geometry" />
        </mxCell>
        <mxCell id="mYAvGEyavj_oluxCG1rr-42" value="3" style="text;html=1;align=center;verticalAlign=middle;whiteSpace=wrap;rounded=0;" parent="mYAvGEyavj_oluxCG1rr-40" vertex="1">
          <mxGeometry y="11.110000000000014" width="60" height="30" as="geometry" />
        </mxCell>
        <mxCell id="mYAvGEyavj_oluxCG1rr-43" value="Испания" style="text;html=1;align=center;verticalAlign=middle;whiteSpace=wrap;rounded=0;" parent="mYAvGEyavj_oluxCG1rr-38" vertex="1">
          <mxGeometry x="32.5" y="50" width="65" height="30" as="geometry" />
        </mxCell>
        <mxCell id="mYAvGEyavj_oluxCG1rr-46" value="" style="group" parent="1" vertex="1" connectable="0">
          <mxGeometry x="500" y="150" width="130" height="90" as="geometry" />
        </mxCell>
        <mxCell id="mYAvGEyavj_oluxCG1rr-47" value="" style="triangle;whiteSpace=wrap;html=1;rotation=-90;" parent="mYAvGEyavj_oluxCG1rr-46" vertex="1">
          <mxGeometry x="20" y="-20" width="90" height="130" as="geometry" />
        </mxCell>
        <mxCell id="mYAvGEyavj_oluxCG1rr-48" value="" style="group" parent="mYAvGEyavj_oluxCG1rr-46" vertex="1" connectable="0">
          <mxGeometry x="35" width="60" height="41.110000000000014" as="geometry" />
        </mxCell>
        <mxCell id="mYAvGEyavj_oluxCG1rr-49" value="" style="triangle;whiteSpace=wrap;html=1;rotation=-90;" parent="mYAvGEyavj_oluxCG1rr-48" vertex="1">
          <mxGeometry x="10" y="-8.889999999999986" width="40" height="57.78" as="geometry" />
        </mxCell>
        <mxCell id="mYAvGEyavj_oluxCG1rr-50" value="4" style="text;html=1;align=center;verticalAlign=middle;whiteSpace=wrap;rounded=0;" parent="mYAvGEyavj_oluxCG1rr-48" vertex="1">
          <mxGeometry y="11.110000000000014" width="60" height="30" as="geometry" />
        </mxCell>
        <mxCell id="mYAvGEyavj_oluxCG1rr-51" value="Франция" style="text;html=1;align=center;verticalAlign=middle;whiteSpace=wrap;rounded=0;" parent="mYAvGEyavj_oluxCG1rr-46" vertex="1">
          <mxGeometry x="32.5" y="50" width="65" height="30" as="geometry" />
        </mxCell>
        <mxCell id="mYAvGEyavj_oluxCG1rr-52" value="" style="group" parent="1" vertex="1" connectable="0">
          <mxGeometry x="640" y="270" width="130" height="90" as="geometry" />
        </mxCell>
        <mxCell id="mYAvGEyavj_oluxCG1rr-53" value="" style="triangle;whiteSpace=wrap;html=1;rotation=-90;" parent="mYAvGEyavj_oluxCG1rr-52" vertex="1">
          <mxGeometry x="20" y="-20" width="90" height="130" as="geometry" />
        </mxCell>
        <mxCell id="mYAvGEyavj_oluxCG1rr-54" value="" style="group" parent="mYAvGEyavj_oluxCG1rr-52" vertex="1" connectable="0">
          <mxGeometry x="35" width="60" height="41.110000000000014" as="geometry" />
        </mxCell>
        <mxCell id="mYAvGEyavj_oluxCG1rr-55" value="" style="triangle;whiteSpace=wrap;html=1;rotation=-90;" parent="mYAvGEyavj_oluxCG1rr-54" vertex="1">
          <mxGeometry x="10" y="-8.889999999999986" width="40" height="57.78" as="geometry" />
        </mxCell>
        <mxCell id="mYAvGEyavj_oluxCG1rr-56" value="10" style="text;html=1;align=center;verticalAlign=middle;whiteSpace=wrap;rounded=0;" parent="mYAvGEyavj_oluxCG1rr-54" vertex="1">
          <mxGeometry y="11.110000000000014" width="60" height="30" as="geometry" />
        </mxCell>
        <mxCell id="mYAvGEyavj_oluxCG1rr-57" value="Великобритания" style="text;html=1;align=center;verticalAlign=middle;whiteSpace=wrap;rounded=0;" parent="mYAvGEyavj_oluxCG1rr-52" vertex="1">
          <mxGeometry x="35" y="50" width="65" height="30" as="geometry" />
        </mxCell>
        <mxCell id="mYAvGEyavj_oluxCG1rr-58" value="" style="group" parent="1" vertex="1" connectable="0">
          <mxGeometry x="500" y="270" width="130" height="90" as="geometry" />
        </mxCell>
        <mxCell id="mYAvGEyavj_oluxCG1rr-59" value="" style="triangle;whiteSpace=wrap;html=1;rotation=-90;" parent="mYAvGEyavj_oluxCG1rr-58" vertex="1">
          <mxGeometry x="20" y="-20" width="90" height="130" as="geometry" />
        </mxCell>
        <mxCell id="mYAvGEyavj_oluxCG1rr-60" value="" style="group" parent="mYAvGEyavj_oluxCG1rr-58" vertex="1" connectable="0">
          <mxGeometry x="35" width="60" height="41.110000000000014" as="geometry" />
        </mxCell>
        <mxCell id="mYAvGEyavj_oluxCG1rr-61" value="" style="triangle;whiteSpace=wrap;html=1;rotation=-90;" parent="mYAvGEyavj_oluxCG1rr-60" vertex="1">
          <mxGeometry x="10" y="-8.889999999999986" width="40" height="57.78" as="geometry" />
        </mxCell>
        <mxCell id="mYAvGEyavj_oluxCG1rr-62" value="9" style="text;html=1;align=center;verticalAlign=middle;whiteSpace=wrap;rounded=0;" parent="mYAvGEyavj_oluxCG1rr-60" vertex="1">
          <mxGeometry y="11.110000000000014" width="60" height="30" as="geometry" />
        </mxCell>
        <mxCell id="mYAvGEyavj_oluxCG1rr-63" value="США" style="text;html=1;align=center;verticalAlign=middle;whiteSpace=wrap;rounded=0;" parent="mYAvGEyavj_oluxCG1rr-58" vertex="1">
          <mxGeometry x="32.5" y="50" width="65" height="30" as="geometry" />
        </mxCell>
        <mxCell id="mYAvGEyavj_oluxCG1rr-64" value="" style="group" parent="1" vertex="1" connectable="0">
          <mxGeometry x="360" y="270" width="130" height="90" as="geometry" />
        </mxCell>
        <mxCell id="mYAvGEyavj_oluxCG1rr-65" value="" style="triangle;whiteSpace=wrap;html=1;rotation=-90;" parent="mYAvGEyavj_oluxCG1rr-64" vertex="1">
          <mxGeometry x="20" y="-20" width="90" height="130" as="geometry" />
        </mxCell>
        <mxCell id="mYAvGEyavj_oluxCG1rr-66" value="" style="group" parent="mYAvGEyavj_oluxCG1rr-64" vertex="1" connectable="0">
          <mxGeometry x="35" width="60" height="41.110000000000014" as="geometry" />
        </mxCell>
        <mxCell id="mYAvGEyavj_oluxCG1rr-67" value="" style="triangle;whiteSpace=wrap;html=1;rotation=-90;" parent="mYAvGEyavj_oluxCG1rr-66" vertex="1">
          <mxGeometry x="10" y="-8.889999999999986" width="40" height="57.78" as="geometry" />
        </mxCell>
        <mxCell id="mYAvGEyavj_oluxCG1rr-68" value="8" style="text;html=1;align=center;verticalAlign=middle;whiteSpace=wrap;rounded=0;" parent="mYAvGEyavj_oluxCG1rr-66" vertex="1">
          <mxGeometry y="11.110000000000014" width="60" height="30" as="geometry" />
        </mxCell>
        <mxCell id="mYAvGEyavj_oluxCG1rr-69" value="Германия" style="text;html=1;align=center;verticalAlign=middle;whiteSpace=wrap;rounded=0;" parent="mYAvGEyavj_oluxCG1rr-64" vertex="1">
          <mxGeometry x="32.5" y="50" width="65" height="30" as="geometry" />
        </mxCell>
        <mxCell id="mYAvGEyavj_oluxCG1rr-70" value="" style="group" parent="1" vertex="1" connectable="0">
          <mxGeometry x="220" y="270" width="130" height="90" as="geometry" />
        </mxCell>
        <mxCell id="mYAvGEyavj_oluxCG1rr-71" value="" style="triangle;whiteSpace=wrap;html=1;rotation=-90;" parent="mYAvGEyavj_oluxCG1rr-70" vertex="1">
          <mxGeometry x="20" y="-20" width="90" height="130" as="geometry" />
        </mxCell>
        <mxCell id="mYAvGEyavj_oluxCG1rr-72" value="" style="group" parent="mYAvGEyavj_oluxCG1rr-70" vertex="1" connectable="0">
          <mxGeometry x="35" width="60" height="41.110000000000014" as="geometry" />
        </mxCell>
        <mxCell id="mYAvGEyavj_oluxCG1rr-73" value="" style="triangle;whiteSpace=wrap;html=1;rotation=-90;" parent="mYAvGEyavj_oluxCG1rr-72" vertex="1">
          <mxGeometry x="10" y="-8.889999999999986" width="40" height="57.78" as="geometry" />
        </mxCell>
        <mxCell id="mYAvGEyavj_oluxCG1rr-74" value="7" style="text;html=1;align=center;verticalAlign=middle;whiteSpace=wrap;rounded=0;" parent="mYAvGEyavj_oluxCG1rr-72" vertex="1">
          <mxGeometry y="11.110000000000014" width="60" height="30" as="geometry" />
        </mxCell>
        <mxCell id="mYAvGEyavj_oluxCG1rr-75" value="Австрия" style="text;html=1;align=center;verticalAlign=middle;whiteSpace=wrap;rounded=0;" parent="mYAvGEyavj_oluxCG1rr-70" vertex="1">
          <mxGeometry x="32.5" y="50" width="65" height="30" as="geometry" />
        </mxCell>
        <mxCell id="mYAvGEyavj_oluxCG1rr-76" value="" style="group" parent="1" vertex="1" connectable="0">
          <mxGeometry x="80" y="270" width="130" height="90" as="geometry" />
        </mxCell>
        <mxCell id="mYAvGEyavj_oluxCG1rr-77" value="" style="triangle;whiteSpace=wrap;html=1;rotation=-90;" parent="mYAvGEyavj_oluxCG1rr-76" vertex="1">
          <mxGeometry x="20" y="-20" width="90" height="130" as="geometry" />
        </mxCell>
        <mxCell id="mYAvGEyavj_oluxCG1rr-78" value="" style="group" parent="mYAvGEyavj_oluxCG1rr-76" vertex="1" connectable="0">
          <mxGeometry x="35" width="60" height="41.110000000000014" as="geometry" />
        </mxCell>
        <mxCell id="mYAvGEyavj_oluxCG1rr-79" value="" style="triangle;whiteSpace=wrap;html=1;rotation=-90;" parent="mYAvGEyavj_oluxCG1rr-78" vertex="1">
          <mxGeometry x="10" y="-8.889999999999986" width="40" height="57.78" as="geometry" />
        </mxCell>
        <mxCell id="mYAvGEyavj_oluxCG1rr-80" value="6" style="text;html=1;align=center;verticalAlign=middle;whiteSpace=wrap;rounded=0;" parent="mYAvGEyavj_oluxCG1rr-78" vertex="1">
          <mxGeometry y="11.110000000000014" width="60" height="30" as="geometry" />
        </mxCell>
        <mxCell id="mYAvGEyavj_oluxCG1rr-81" value="Россия" style="text;html=1;align=center;verticalAlign=middle;whiteSpace=wrap;rounded=0;" parent="mYAvGEyavj_oluxCG1rr-76" vertex="1">
          <mxGeometry x="32.5" y="50" width="65" height="30" as="geometry" />
        </mxCell>
        <mxCell id="mYAvGEyavj_oluxCG1rr-82" value="" style="group" parent="1" vertex="1" connectable="0">
          <mxGeometry x="640" y="150" width="130" height="90" as="geometry" />
        </mxCell>
        <mxCell id="mYAvGEyavj_oluxCG1rr-83" value="" style="triangle;whiteSpace=wrap;html=1;rotation=-90;" parent="mYAvGEyavj_oluxCG1rr-82" vertex="1">
          <mxGeometry x="20" y="-20" width="90" height="130" as="geometry" />
        </mxCell>
        <mxCell id="mYAvGEyavj_oluxCG1rr-84" value="" style="group" parent="mYAvGEyavj_oluxCG1rr-82" vertex="1" connectable="0">
          <mxGeometry x="35" width="60" height="41.110000000000014" as="geometry" />
        </mxCell>
        <mxCell id="mYAvGEyavj_oluxCG1rr-85" value="" style="triangle;whiteSpace=wrap;html=1;rotation=-90;" parent="mYAvGEyavj_oluxCG1rr-84" vertex="1">
          <mxGeometry x="10" y="-8.889999999999986" width="40" height="57.78" as="geometry" />
        </mxCell>
        <mxCell id="mYAvGEyavj_oluxCG1rr-86" value="5" style="text;html=1;align=center;verticalAlign=middle;whiteSpace=wrap;rounded=0;" parent="mYAvGEyavj_oluxCG1rr-84" vertex="1">
          <mxGeometry y="11.110000000000014" width="60" height="30" as="geometry" />
        </mxCell>
        <mxCell id="mYAvGEyavj_oluxCG1rr-87" value="Норвегия" style="text;html=1;align=center;verticalAlign=middle;whiteSpace=wrap;rounded=0;" parent="mYAvGEyavj_oluxCG1rr-82" vertex="1">
          <mxGeometry x="32.5" y="50" width="65" height="30" as="geometry" />
        </mxCell>
      </root>
    </mxGraphModel>
  </diagram>
  <diagram name="ExhibitsInGallery" id="OJsJNJ6tV0bwg5a8FDHo">
    <mxGraphModel dx="2160" dy="772" grid="1" gridSize="10" guides="1" tooltips="1" connect="1" arrows="1" fold="1" page="1" pageScale="1" pageWidth="827" pageHeight="1169" math="0" shadow="0">
      <root>
        <mxCell id="0" />
        <mxCell id="1" parent="0" />
        <mxCell id="iYixckULshKqDGNZfNxG-1" value="" style="group" parent="1" vertex="1" connectable="0">
          <mxGeometry x="50" y="150" width="120" height="120" as="geometry" />
        </mxCell>
        <mxCell id="iYixckULshKqDGNZfNxG-2" value="" style="ellipse;whiteSpace=wrap;html=1;aspect=fixed;" parent="iYixckULshKqDGNZfNxG-1" vertex="1">
          <mxGeometry width="120" height="120" as="geometry" />
        </mxCell>
        <mxCell id="iYixckULshKqDGNZfNxG-3" value="1" style="ellipse;whiteSpace=wrap;html=1;aspect=fixed;" parent="iYixckULshKqDGNZfNxG-1" vertex="1">
          <mxGeometry x="35" width="50" height="50" as="geometry" />
        </mxCell>
        <mxCell id="iYixckULshKqDGNZfNxG-4" value="Леонардо да Винчи" style="text;html=1;align=center;verticalAlign=middle;whiteSpace=wrap;rounded=0;" parent="iYixckULshKqDGNZfNxG-1" vertex="1">
          <mxGeometry x="15" y="60" width="90" height="30" as="geometry" />
        </mxCell>
        <mxCell id="iYixckULshKqDGNZfNxG-5" value="" style="group" parent="1" vertex="1" connectable="0">
          <mxGeometry x="430" y="140" width="120" height="120" as="geometry" />
        </mxCell>
        <mxCell id="iYixckULshKqDGNZfNxG-6" value="" style="ellipse;whiteSpace=wrap;html=1;aspect=fixed;" parent="iYixckULshKqDGNZfNxG-5" vertex="1">
          <mxGeometry width="120" height="120" as="geometry" />
        </mxCell>
        <mxCell id="iYixckULshKqDGNZfNxG-7" value="2" style="ellipse;whiteSpace=wrap;html=1;aspect=fixed;" parent="iYixckULshKqDGNZfNxG-5" vertex="1">
          <mxGeometry x="35" width="50" height="50" as="geometry" />
        </mxCell>
        <mxCell id="iYixckULshKqDGNZfNxG-8" value="Винсент ван Гог" style="text;html=1;align=center;verticalAlign=middle;whiteSpace=wrap;rounded=0;" parent="iYixckULshKqDGNZfNxG-5" vertex="1">
          <mxGeometry x="12.5" y="60" width="95" height="30" as="geometry" />
        </mxCell>
        <mxCell id="iYixckULshKqDGNZfNxG-9" value="" style="group" parent="1" vertex="1" connectable="0">
          <mxGeometry x="-155" y="380" width="120" height="120" as="geometry" />
        </mxCell>
        <mxCell id="iYixckULshKqDGNZfNxG-10" value="" style="ellipse;whiteSpace=wrap;html=1;aspect=fixed;" parent="iYixckULshKqDGNZfNxG-9" vertex="1">
          <mxGeometry width="120" height="120" as="geometry" />
        </mxCell>
        <mxCell id="iYixckULshKqDGNZfNxG-11" value="3" style="ellipse;whiteSpace=wrap;html=1;aspect=fixed;" parent="iYixckULshKqDGNZfNxG-9" vertex="1">
          <mxGeometry x="35" width="50" height="50" as="geometry" />
        </mxCell>
        <mxCell id="iYixckULshKqDGNZfNxG-12" value="Пабло Пикассо" style="text;html=1;align=center;verticalAlign=middle;whiteSpace=wrap;rounded=0;" parent="iYixckULshKqDGNZfNxG-9" vertex="1">
          <mxGeometry x="22" y="60" width="76" height="30" as="geometry" />
        </mxCell>
        <mxCell id="iYixckULshKqDGNZfNxG-13" value="" style="group" parent="1" vertex="1" connectable="0">
          <mxGeometry x="20" y="380" width="120" height="120" as="geometry" />
        </mxCell>
        <mxCell id="iYixckULshKqDGNZfNxG-14" value="" style="ellipse;whiteSpace=wrap;html=1;aspect=fixed;" parent="iYixckULshKqDGNZfNxG-13" vertex="1">
          <mxGeometry width="120" height="120" as="geometry" />
        </mxCell>
        <mxCell id="iYixckULshKqDGNZfNxG-15" value="4" style="ellipse;whiteSpace=wrap;html=1;aspect=fixed;" parent="iYixckULshKqDGNZfNxG-13" vertex="1">
          <mxGeometry x="35" width="50" height="50" as="geometry" />
        </mxCell>
        <mxCell id="iYixckULshKqDGNZfNxG-16" value="Клод Моне" style="text;html=1;align=center;verticalAlign=middle;whiteSpace=wrap;rounded=0;" parent="iYixckULshKqDGNZfNxG-13" vertex="1">
          <mxGeometry x="17.5" y="60" width="85" height="30" as="geometry" />
        </mxCell>
        <mxCell id="iYixckULshKqDGNZfNxG-17" value="" style="group" parent="1" vertex="1" connectable="0">
          <mxGeometry x="-370" y="150" width="120" height="120" as="geometry" />
        </mxCell>
        <mxCell id="iYixckULshKqDGNZfNxG-18" value="" style="ellipse;whiteSpace=wrap;html=1;aspect=fixed;" parent="iYixckULshKqDGNZfNxG-17" vertex="1">
          <mxGeometry width="120" height="120" as="geometry" />
        </mxCell>
        <mxCell id="iYixckULshKqDGNZfNxG-19" value="5" style="ellipse;whiteSpace=wrap;html=1;aspect=fixed;" parent="iYixckULshKqDGNZfNxG-17" vertex="1">
          <mxGeometry x="35" width="50" height="50" as="geometry" />
        </mxCell>
        <mxCell id="iYixckULshKqDGNZfNxG-20" value="Сальвадор Дали" style="text;html=1;align=center;verticalAlign=middle;whiteSpace=wrap;rounded=0;" parent="iYixckULshKqDGNZfNxG-17" vertex="1">
          <mxGeometry x="30" y="60" width="60" height="30" as="geometry" />
        </mxCell>
        <mxCell id="iYixckULshKqDGNZfNxG-21" value="" style="group" parent="1" vertex="1" connectable="0">
          <mxGeometry x="229" y="440" width="120" height="120" as="geometry" />
        </mxCell>
        <mxCell id="iYixckULshKqDGNZfNxG-22" value="" style="ellipse;whiteSpace=wrap;html=1;aspect=fixed;" parent="iYixckULshKqDGNZfNxG-21" vertex="1">
          <mxGeometry width="120" height="120" as="geometry" />
        </mxCell>
        <mxCell id="iYixckULshKqDGNZfNxG-23" value="6" style="ellipse;whiteSpace=wrap;html=1;aspect=fixed;" parent="iYixckULshKqDGNZfNxG-21" vertex="1">
          <mxGeometry x="35" width="50" height="50" as="geometry" />
        </mxCell>
        <mxCell id="iYixckULshKqDGNZfNxG-24" value="Рембрандт" style="text;html=1;align=center;verticalAlign=middle;whiteSpace=wrap;rounded=0;" parent="iYixckULshKqDGNZfNxG-21" vertex="1">
          <mxGeometry x="10" y="60" width="110" height="30" as="geometry" />
        </mxCell>
        <mxCell id="iYixckULshKqDGNZfNxG-25" value="" style="group" parent="1" vertex="1" connectable="0">
          <mxGeometry x="440" y="360" width="120" height="120" as="geometry" />
        </mxCell>
        <mxCell id="iYixckULshKqDGNZfNxG-26" value="" style="ellipse;whiteSpace=wrap;html=1;aspect=fixed;" parent="iYixckULshKqDGNZfNxG-25" vertex="1">
          <mxGeometry width="120" height="120" as="geometry" />
        </mxCell>
        <mxCell id="iYixckULshKqDGNZfNxG-27" value="7" style="ellipse;whiteSpace=wrap;html=1;aspect=fixed;" parent="iYixckULshKqDGNZfNxG-25" vertex="1">
          <mxGeometry x="35" width="50" height="50" as="geometry" />
        </mxCell>
        <mxCell id="iYixckULshKqDGNZfNxG-28" value="Микеланджело" style="text;html=1;align=center;verticalAlign=middle;whiteSpace=wrap;rounded=0;" parent="iYixckULshKqDGNZfNxG-25" vertex="1">
          <mxGeometry x="25" y="60" width="75" height="30" as="geometry" />
        </mxCell>
        <mxCell id="iYixckULshKqDGNZfNxG-29" value="" style="group" parent="1" vertex="1" connectable="0">
          <mxGeometry x="-555" y="450" width="120" height="120" as="geometry" />
        </mxCell>
        <mxCell id="iYixckULshKqDGNZfNxG-30" value="" style="ellipse;whiteSpace=wrap;html=1;aspect=fixed;" parent="iYixckULshKqDGNZfNxG-29" vertex="1">
          <mxGeometry width="120" height="120" as="geometry" />
        </mxCell>
        <mxCell id="iYixckULshKqDGNZfNxG-31" value="8" style="ellipse;whiteSpace=wrap;html=1;aspect=fixed;" parent="iYixckULshKqDGNZfNxG-29" vertex="1">
          <mxGeometry x="37" y="2" width="46" height="46" as="geometry" />
        </mxCell>
        <mxCell id="iYixckULshKqDGNZfNxG-32" value="Эдвард Мунк" style="text;html=1;align=center;verticalAlign=middle;whiteSpace=wrap;rounded=0;" parent="iYixckULshKqDGNZfNxG-29" vertex="1">
          <mxGeometry x="19" y="60" width="81" height="30" as="geometry" />
        </mxCell>
        <mxCell id="iYixckULshKqDGNZfNxG-33" value="" style="group" parent="1" vertex="1" connectable="0">
          <mxGeometry x="-770" y="630" width="120" height="120" as="geometry" />
        </mxCell>
        <mxCell id="iYixckULshKqDGNZfNxG-34" value="" style="ellipse;whiteSpace=wrap;html=1;aspect=fixed;" parent="iYixckULshKqDGNZfNxG-33" vertex="1">
          <mxGeometry width="120" height="120" as="geometry" />
        </mxCell>
        <mxCell id="iYixckULshKqDGNZfNxG-35" value="9" style="ellipse;whiteSpace=wrap;html=1;aspect=fixed;" parent="iYixckULshKqDGNZfNxG-33" vertex="1">
          <mxGeometry x="35" width="50" height="50" as="geometry" />
        </mxCell>
        <mxCell id="iYixckULshKqDGNZfNxG-36" value="Казимир Малевич" style="text;html=1;align=center;verticalAlign=middle;whiteSpace=wrap;rounded=0;" parent="iYixckULshKqDGNZfNxG-33" vertex="1">
          <mxGeometry x="30" y="60" width="60" height="30" as="geometry" />
        </mxCell>
        <mxCell id="iYixckULshKqDGNZfNxG-37" value="" style="group" parent="1" vertex="1" connectable="0">
          <mxGeometry x="-340" y="800" width="120" height="120" as="geometry" />
        </mxCell>
        <mxCell id="iYixckULshKqDGNZfNxG-38" value="" style="ellipse;whiteSpace=wrap;html=1;aspect=fixed;" parent="iYixckULshKqDGNZfNxG-37" vertex="1">
          <mxGeometry width="120" height="120" as="geometry" />
        </mxCell>
        <mxCell id="iYixckULshKqDGNZfNxG-39" value="10" style="ellipse;whiteSpace=wrap;html=1;aspect=fixed;" parent="iYixckULshKqDGNZfNxG-37" vertex="1">
          <mxGeometry x="35" width="50" height="50" as="geometry" />
        </mxCell>
        <mxCell id="iYixckULshKqDGNZfNxG-40" value="Иван Шишкин" style="text;html=1;align=center;verticalAlign=middle;whiteSpace=wrap;rounded=0;" parent="iYixckULshKqDGNZfNxG-37" vertex="1">
          <mxGeometry x="10" y="60" width="105" height="30" as="geometry" />
        </mxCell>
        <mxCell id="lGU6is1oW97Xrm3RdDfL-1" value="" style="group" parent="1" vertex="1" connectable="0">
          <mxGeometry x="-570" y="810" width="150" height="100" as="geometry" />
        </mxCell>
        <mxCell id="lGU6is1oW97Xrm3RdDfL-2" value="" style="rounded=0;whiteSpace=wrap;html=1;" parent="lGU6is1oW97Xrm3RdDfL-1" vertex="1">
          <mxGeometry width="150" height="100" as="geometry" />
        </mxCell>
        <mxCell id="lGU6is1oW97Xrm3RdDfL-3" value="10" style="rounded=0;whiteSpace=wrap;html=1;" parent="lGU6is1oW97Xrm3RdDfL-1" vertex="1">
          <mxGeometry x="50" width="50" height="30" as="geometry" />
        </mxCell>
        <mxCell id="lGU6is1oW97Xrm3RdDfL-4" value="&lt;font style=&quot;font-size: 14px;&quot;&gt;Эрмитаж&lt;/font&gt;" style="text;html=1;align=center;verticalAlign=middle;whiteSpace=wrap;rounded=0;" parent="lGU6is1oW97Xrm3RdDfL-1" vertex="1">
          <mxGeometry x="41.66666666666667" y="40" width="66.66666666666667" height="45" as="geometry" />
        </mxCell>
        <mxCell id="lGU6is1oW97Xrm3RdDfL-5" value="" style="group" parent="1" vertex="1" connectable="0">
          <mxGeometry x="-570" y="160" width="150" height="100" as="geometry" />
        </mxCell>
        <mxCell id="lGU6is1oW97Xrm3RdDfL-6" value="" style="rounded=0;whiteSpace=wrap;html=1;" parent="lGU6is1oW97Xrm3RdDfL-5" vertex="1">
          <mxGeometry width="150" height="100" as="geometry" />
        </mxCell>
        <mxCell id="lGU6is1oW97Xrm3RdDfL-7" value="5" style="rounded=0;whiteSpace=wrap;html=1;" parent="lGU6is1oW97Xrm3RdDfL-5" vertex="1">
          <mxGeometry x="50" width="50" height="30" as="geometry" />
        </mxCell>
        <mxCell id="lGU6is1oW97Xrm3RdDfL-8" value="&lt;font style=&quot;font-size: 14px;&quot;&gt;Музей Дали&lt;/font&gt;" style="text;html=1;align=center;verticalAlign=middle;whiteSpace=wrap;rounded=0;" parent="lGU6is1oW97Xrm3RdDfL-5" vertex="1">
          <mxGeometry x="41.66666666666667" y="40" width="66.66666666666667" height="45" as="geometry" />
        </mxCell>
        <mxCell id="lGU6is1oW97Xrm3RdDfL-9" value="" style="group" parent="1" vertex="1" connectable="0">
          <mxGeometry x="-570" y="640" width="150" height="100" as="geometry" />
        </mxCell>
        <mxCell id="lGU6is1oW97Xrm3RdDfL-10" value="" style="rounded=0;whiteSpace=wrap;html=1;" parent="lGU6is1oW97Xrm3RdDfL-9" vertex="1">
          <mxGeometry width="150" height="100" as="geometry" />
        </mxCell>
        <mxCell id="lGU6is1oW97Xrm3RdDfL-11" value="9" style="rounded=0;whiteSpace=wrap;html=1;" parent="lGU6is1oW97Xrm3RdDfL-9" vertex="1">
          <mxGeometry x="50" width="50" height="30" as="geometry" />
        </mxCell>
        <mxCell id="lGU6is1oW97Xrm3RdDfL-12" value="&lt;font style=&quot;font-size: 14px;&quot;&gt;Третьяковская галерея&lt;/font&gt;" style="text;html=1;align=center;verticalAlign=middle;whiteSpace=wrap;rounded=0;" parent="lGU6is1oW97Xrm3RdDfL-9" vertex="1">
          <mxGeometry x="35.83" y="40" width="78.33" height="45" as="geometry" />
        </mxCell>
        <mxCell id="lGU6is1oW97Xrm3RdDfL-13" value="" style="group" parent="1" vertex="1" connectable="0">
          <mxGeometry x="-170" y="570" width="150" height="100" as="geometry" />
        </mxCell>
        <mxCell id="lGU6is1oW97Xrm3RdDfL-14" value="" style="rounded=0;whiteSpace=wrap;html=1;" parent="lGU6is1oW97Xrm3RdDfL-13" vertex="1">
          <mxGeometry width="150" height="100" as="geometry" />
        </mxCell>
        <mxCell id="lGU6is1oW97Xrm3RdDfL-15" value="4" style="rounded=0;whiteSpace=wrap;html=1;" parent="lGU6is1oW97Xrm3RdDfL-13" vertex="1">
          <mxGeometry x="50" width="50" height="30" as="geometry" />
        </mxCell>
        <mxCell id="lGU6is1oW97Xrm3RdDfL-16" value="&lt;font style=&quot;font-size: 14px;&quot;&gt;Музей Орсе&lt;/font&gt;" style="text;html=1;align=center;verticalAlign=middle;whiteSpace=wrap;rounded=0;" parent="lGU6is1oW97Xrm3RdDfL-13" vertex="1">
          <mxGeometry x="41.66666666666667" y="40" width="66.66666666666667" height="45" as="geometry" />
        </mxCell>
        <mxCell id="lGU6is1oW97Xrm3RdDfL-17" value="" style="group" parent="1" vertex="1" connectable="0">
          <mxGeometry x="-570" y="300" width="150" height="100" as="geometry" />
        </mxCell>
        <mxCell id="lGU6is1oW97Xrm3RdDfL-18" value="" style="rounded=0;whiteSpace=wrap;html=1;" parent="lGU6is1oW97Xrm3RdDfL-17" vertex="1">
          <mxGeometry width="150" height="100" as="geometry" />
        </mxCell>
        <mxCell id="lGU6is1oW97Xrm3RdDfL-19" value="8" style="rounded=0;whiteSpace=wrap;html=1;" parent="lGU6is1oW97Xrm3RdDfL-17" vertex="1">
          <mxGeometry x="50" width="50" height="30" as="geometry" />
        </mxCell>
        <mxCell id="lGU6is1oW97Xrm3RdDfL-20" value="&lt;span style=&quot;font-size: 14px;&quot;&gt;Музей Мунка&lt;/span&gt;" style="text;html=1;align=center;verticalAlign=middle;whiteSpace=wrap;rounded=0;" parent="lGU6is1oW97Xrm3RdDfL-17" vertex="1">
          <mxGeometry x="41.66666666666667" y="40" width="66.66666666666667" height="45" as="geometry" />
        </mxCell>
        <mxCell id="lGU6is1oW97Xrm3RdDfL-21" value="" style="group" parent="1" vertex="1" connectable="0">
          <mxGeometry x="600" y="460" width="150" height="100" as="geometry" />
        </mxCell>
        <mxCell id="lGU6is1oW97Xrm3RdDfL-22" value="" style="rounded=0;whiteSpace=wrap;html=1;" parent="lGU6is1oW97Xrm3RdDfL-21" vertex="1">
          <mxGeometry width="150" height="100" as="geometry" />
        </mxCell>
        <mxCell id="lGU6is1oW97Xrm3RdDfL-23" value="7" style="rounded=0;whiteSpace=wrap;html=1;" parent="lGU6is1oW97Xrm3RdDfL-21" vertex="1">
          <mxGeometry x="50" width="50" height="30" as="geometry" />
        </mxCell>
        <mxCell id="lGU6is1oW97Xrm3RdDfL-24" value="&lt;font style=&quot;font-size: 14px;&quot;&gt;Альбертина&lt;/font&gt;" style="text;html=1;align=center;verticalAlign=middle;whiteSpace=wrap;rounded=0;" parent="lGU6is1oW97Xrm3RdDfL-21" vertex="1">
          <mxGeometry x="30.830000000000002" y="40" width="88.33" height="45" as="geometry" />
        </mxCell>
        <mxCell id="lGU6is1oW97Xrm3RdDfL-25" value="" style="group" parent="1" vertex="1" connectable="0">
          <mxGeometry x="214" y="630" width="150" height="100" as="geometry" />
        </mxCell>
        <mxCell id="lGU6is1oW97Xrm3RdDfL-26" value="" style="rounded=0;whiteSpace=wrap;html=1;" parent="lGU6is1oW97Xrm3RdDfL-25" vertex="1">
          <mxGeometry width="150" height="100" as="geometry" />
        </mxCell>
        <mxCell id="lGU6is1oW97Xrm3RdDfL-27" value="6" style="rounded=0;whiteSpace=wrap;html=1;" parent="lGU6is1oW97Xrm3RdDfL-25" vertex="1">
          <mxGeometry x="50" width="50" height="30" as="geometry" />
        </mxCell>
        <mxCell id="lGU6is1oW97Xrm3RdDfL-28" value="&lt;span style=&quot;font-size: 14px;&quot;&gt;Рейксмюсеум&lt;/span&gt;" style="text;html=1;align=center;verticalAlign=middle;whiteSpace=wrap;rounded=0;" parent="lGU6is1oW97Xrm3RdDfL-25" vertex="1">
          <mxGeometry x="25.830000000000002" y="40" width="98.33" height="45" as="geometry" />
        </mxCell>
        <mxCell id="lGU6is1oW97Xrm3RdDfL-29" value="" style="group" parent="1" vertex="1" connectable="0">
          <mxGeometry x="-170" y="160" width="150" height="100" as="geometry" />
        </mxCell>
        <mxCell id="lGU6is1oW97Xrm3RdDfL-30" value="" style="rounded=0;whiteSpace=wrap;html=1;" parent="lGU6is1oW97Xrm3RdDfL-29" vertex="1">
          <mxGeometry width="150" height="100" as="geometry" />
        </mxCell>
        <mxCell id="lGU6is1oW97Xrm3RdDfL-31" value="3" style="rounded=0;whiteSpace=wrap;html=1;" parent="lGU6is1oW97Xrm3RdDfL-29" vertex="1">
          <mxGeometry x="50" width="50" height="30" as="geometry" />
        </mxCell>
        <mxCell id="lGU6is1oW97Xrm3RdDfL-32" value="&lt;font style=&quot;font-size: 14px;&quot;&gt;Прадо&lt;/font&gt;" style="text;html=1;align=center;verticalAlign=middle;whiteSpace=wrap;rounded=0;" parent="lGU6is1oW97Xrm3RdDfL-29" vertex="1">
          <mxGeometry x="41.66666666666667" y="40" width="66.66666666666667" height="45" as="geometry" />
        </mxCell>
        <mxCell id="lGU6is1oW97Xrm3RdDfL-33" value="" style="group" parent="1" vertex="1" connectable="0">
          <mxGeometry x="600" y="270" width="150" height="100" as="geometry" />
        </mxCell>
        <mxCell id="lGU6is1oW97Xrm3RdDfL-34" value="" style="rounded=0;whiteSpace=wrap;html=1;" parent="lGU6is1oW97Xrm3RdDfL-33" vertex="1">
          <mxGeometry width="150" height="100" as="geometry" />
        </mxCell>
        <mxCell id="lGU6is1oW97Xrm3RdDfL-35" value="2" style="rounded=0;whiteSpace=wrap;html=1;" parent="lGU6is1oW97Xrm3RdDfL-33" vertex="1">
          <mxGeometry x="50" width="50" height="30" as="geometry" />
        </mxCell>
        <mxCell id="lGU6is1oW97Xrm3RdDfL-36" value="&lt;font style=&quot;font-size: 14px;&quot;&gt;Музей ван Гога&lt;/font&gt;" style="text;html=1;align=center;verticalAlign=middle;whiteSpace=wrap;rounded=0;" parent="lGU6is1oW97Xrm3RdDfL-33" vertex="1">
          <mxGeometry x="35.83" y="40" width="78.33" height="45" as="geometry" />
        </mxCell>
        <mxCell id="lGU6is1oW97Xrm3RdDfL-37" value="" style="group" parent="1" vertex="1" connectable="0">
          <mxGeometry x="214" y="280" width="150" height="100" as="geometry" />
        </mxCell>
        <mxCell id="lGU6is1oW97Xrm3RdDfL-38" value="" style="rounded=0;whiteSpace=wrap;html=1;" parent="lGU6is1oW97Xrm3RdDfL-37" vertex="1">
          <mxGeometry width="150" height="100" as="geometry" />
        </mxCell>
        <mxCell id="lGU6is1oW97Xrm3RdDfL-39" value="1" style="rounded=0;whiteSpace=wrap;html=1;" parent="lGU6is1oW97Xrm3RdDfL-37" vertex="1">
          <mxGeometry x="50" width="50" height="30" as="geometry" />
        </mxCell>
        <mxCell id="lGU6is1oW97Xrm3RdDfL-40" value="&lt;font style=&quot;font-size: 14px;&quot;&gt;Лувр&lt;/font&gt;" style="text;html=1;align=center;verticalAlign=middle;whiteSpace=wrap;rounded=0;" parent="lGU6is1oW97Xrm3RdDfL-37" vertex="1">
          <mxGeometry x="41.66666666666667" y="40" width="66.66666666666667" height="45" as="geometry" />
        </mxCell>
        <mxCell id="IzF6nj1Lq_DWOceICSU5-2" style="edgeStyle=orthogonalEdgeStyle;rounded=0;orthogonalLoop=1;jettySize=auto;html=1;entryX=0.5;entryY=0;entryDx=0;entryDy=0;" parent="1" source="iYixckULshKqDGNZfNxG-2" target="lGU6is1oW97Xrm3RdDfL-39" edge="1">
          <mxGeometry relative="1" as="geometry" />
        </mxCell>
        <mxCell id="IzF6nj1Lq_DWOceICSU5-3" style="edgeStyle=orthogonalEdgeStyle;rounded=0;orthogonalLoop=1;jettySize=auto;html=1;entryX=1;entryY=0.25;entryDx=0;entryDy=0;" parent="1" source="iYixckULshKqDGNZfNxG-6" target="lGU6is1oW97Xrm3RdDfL-38" edge="1">
          <mxGeometry relative="1" as="geometry" />
        </mxCell>
        <mxCell id="IzF6nj1Lq_DWOceICSU5-4" style="edgeStyle=orthogonalEdgeStyle;rounded=0;orthogonalLoop=1;jettySize=auto;html=1;entryX=0;entryY=0.5;entryDx=0;entryDy=0;" parent="1" source="iYixckULshKqDGNZfNxG-14" target="lGU6is1oW97Xrm3RdDfL-38" edge="1">
          <mxGeometry relative="1" as="geometry" />
        </mxCell>
        <mxCell id="IzF6nj1Lq_DWOceICSU5-7" style="edgeStyle=orthogonalEdgeStyle;rounded=0;orthogonalLoop=1;jettySize=auto;html=1;entryX=1;entryY=0.5;entryDx=0;entryDy=0;" parent="1" source="iYixckULshKqDGNZfNxG-26" target="lGU6is1oW97Xrm3RdDfL-38" edge="1">
          <mxGeometry relative="1" as="geometry">
            <mxPoint x="370" y="350" as="targetPoint" />
          </mxGeometry>
        </mxCell>
        <mxCell id="IzF6nj1Lq_DWOceICSU5-9" style="edgeStyle=orthogonalEdgeStyle;rounded=0;orthogonalLoop=1;jettySize=auto;html=1;entryX=0.5;entryY=0;entryDx=0;entryDy=0;" parent="1" source="iYixckULshKqDGNZfNxG-6" target="lGU6is1oW97Xrm3RdDfL-35" edge="1">
          <mxGeometry relative="1" as="geometry" />
        </mxCell>
        <mxCell id="IzF6nj1Lq_DWOceICSU5-12" style="edgeStyle=orthogonalEdgeStyle;rounded=0;orthogonalLoop=1;jettySize=auto;html=1;entryX=1;entryY=0.5;entryDx=0;entryDy=0;" parent="1" source="iYixckULshKqDGNZfNxG-2" target="lGU6is1oW97Xrm3RdDfL-30" edge="1">
          <mxGeometry relative="1" as="geometry" />
        </mxCell>
        <mxCell id="IzF6nj1Lq_DWOceICSU5-14" style="edgeStyle=orthogonalEdgeStyle;rounded=0;orthogonalLoop=1;jettySize=auto;html=1;entryX=0.5;entryY=1;entryDx=0;entryDy=0;" parent="1" source="iYixckULshKqDGNZfNxG-11" target="lGU6is1oW97Xrm3RdDfL-30" edge="1">
          <mxGeometry relative="1" as="geometry" />
        </mxCell>
        <mxCell id="IzF6nj1Lq_DWOceICSU5-15" style="edgeStyle=orthogonalEdgeStyle;rounded=0;orthogonalLoop=1;jettySize=auto;html=1;entryX=0.5;entryY=0;entryDx=0;entryDy=0;" parent="1" source="iYixckULshKqDGNZfNxG-10" target="lGU6is1oW97Xrm3RdDfL-14" edge="1">
          <mxGeometry relative="1" as="geometry" />
        </mxCell>
        <mxCell id="IzF6nj1Lq_DWOceICSU5-16" style="edgeStyle=orthogonalEdgeStyle;rounded=0;orthogonalLoop=1;jettySize=auto;html=1;entryX=1;entryY=0.5;entryDx=0;entryDy=0;exitX=0.5;exitY=1;exitDx=0;exitDy=0;" parent="1" source="iYixckULshKqDGNZfNxG-14" target="lGU6is1oW97Xrm3RdDfL-14" edge="1">
          <mxGeometry relative="1" as="geometry" />
        </mxCell>
        <mxCell id="IzF6nj1Lq_DWOceICSU5-17" style="edgeStyle=orthogonalEdgeStyle;rounded=0;orthogonalLoop=1;jettySize=auto;html=1;entryX=0.5;entryY=0;entryDx=0;entryDy=0;" parent="1" source="iYixckULshKqDGNZfNxG-26" target="lGU6is1oW97Xrm3RdDfL-23" edge="1">
          <mxGeometry relative="1" as="geometry" />
        </mxCell>
        <mxCell id="IzF6nj1Lq_DWOceICSU5-18" style="edgeStyle=orthogonalEdgeStyle;rounded=0;orthogonalLoop=1;jettySize=auto;html=1;entryX=0;entryY=0.5;entryDx=0;entryDy=0;" parent="1" source="iYixckULshKqDGNZfNxG-18" target="lGU6is1oW97Xrm3RdDfL-30" edge="1">
          <mxGeometry relative="1" as="geometry" />
        </mxCell>
        <mxCell id="IzF6nj1Lq_DWOceICSU5-20" style="edgeStyle=orthogonalEdgeStyle;rounded=0;orthogonalLoop=1;jettySize=auto;html=1;exitX=0;exitY=0.5;exitDx=0;exitDy=0;entryX=1;entryY=0.5;entryDx=0;entryDy=0;" parent="1" source="iYixckULshKqDGNZfNxG-18" target="lGU6is1oW97Xrm3RdDfL-6" edge="1">
          <mxGeometry relative="1" as="geometry" />
        </mxCell>
        <mxCell id="IzF6nj1Lq_DWOceICSU5-22" style="edgeStyle=orthogonalEdgeStyle;rounded=0;orthogonalLoop=1;jettySize=auto;html=1;exitX=0.5;exitY=0;exitDx=0;exitDy=0;entryX=0.5;entryY=1;entryDx=0;entryDy=0;" parent="1" source="iYixckULshKqDGNZfNxG-23" target="lGU6is1oW97Xrm3RdDfL-38" edge="1">
          <mxGeometry relative="1" as="geometry" />
        </mxCell>
        <mxCell id="IzF6nj1Lq_DWOceICSU5-24" style="edgeStyle=orthogonalEdgeStyle;rounded=0;orthogonalLoop=1;jettySize=auto;html=1;exitX=0.5;exitY=1;exitDx=0;exitDy=0;entryX=0.5;entryY=0;entryDx=0;entryDy=0;" parent="1" source="iYixckULshKqDGNZfNxG-22" target="lGU6is1oW97Xrm3RdDfL-26" edge="1">
          <mxGeometry relative="1" as="geometry" />
        </mxCell>
        <mxCell id="IzF6nj1Lq_DWOceICSU5-26" style="edgeStyle=orthogonalEdgeStyle;rounded=0;orthogonalLoop=1;jettySize=auto;html=1;exitX=0.5;exitY=0;exitDx=0;exitDy=0;entryX=0.5;entryY=1;entryDx=0;entryDy=0;" parent="1" source="iYixckULshKqDGNZfNxG-30" target="lGU6is1oW97Xrm3RdDfL-18" edge="1">
          <mxGeometry relative="1" as="geometry" />
        </mxCell>
        <mxCell id="IzF6nj1Lq_DWOceICSU5-27" style="edgeStyle=orthogonalEdgeStyle;rounded=0;orthogonalLoop=1;jettySize=auto;html=1;exitX=0.5;exitY=1;exitDx=0;exitDy=0;entryX=0.5;entryY=0;entryDx=0;entryDy=0;" parent="1" source="iYixckULshKqDGNZfNxG-30" target="lGU6is1oW97Xrm3RdDfL-11" edge="1">
          <mxGeometry relative="1" as="geometry" />
        </mxCell>
        <mxCell id="IzF6nj1Lq_DWOceICSU5-28" style="edgeStyle=orthogonalEdgeStyle;rounded=0;orthogonalLoop=1;jettySize=auto;html=1;exitX=1;exitY=0.5;exitDx=0;exitDy=0;entryX=0;entryY=0.5;entryDx=0;entryDy=0;" parent="1" source="iYixckULshKqDGNZfNxG-34" target="lGU6is1oW97Xrm3RdDfL-10" edge="1">
          <mxGeometry relative="1" as="geometry" />
        </mxCell>
        <mxCell id="IzF6nj1Lq_DWOceICSU5-29" style="edgeStyle=orthogonalEdgeStyle;rounded=0;orthogonalLoop=1;jettySize=auto;html=1;exitX=0.5;exitY=1;exitDx=0;exitDy=0;entryX=0;entryY=0.5;entryDx=0;entryDy=0;" parent="1" source="iYixckULshKqDGNZfNxG-34" target="lGU6is1oW97Xrm3RdDfL-2" edge="1">
          <mxGeometry relative="1" as="geometry" />
        </mxCell>
        <mxCell id="IzF6nj1Lq_DWOceICSU5-30" style="edgeStyle=orthogonalEdgeStyle;rounded=0;orthogonalLoop=1;jettySize=auto;html=1;exitX=0.5;exitY=0;exitDx=0;exitDy=0;entryX=1;entryY=0.5;entryDx=0;entryDy=0;" parent="1" source="iYixckULshKqDGNZfNxG-39" target="lGU6is1oW97Xrm3RdDfL-10" edge="1">
          <mxGeometry relative="1" as="geometry" />
        </mxCell>
        <mxCell id="IzF6nj1Lq_DWOceICSU5-31" style="edgeStyle=orthogonalEdgeStyle;rounded=0;orthogonalLoop=1;jettySize=auto;html=1;exitX=0;exitY=0.5;exitDx=0;exitDy=0;entryX=1;entryY=0.5;entryDx=0;entryDy=0;" parent="1" source="iYixckULshKqDGNZfNxG-38" target="lGU6is1oW97Xrm3RdDfL-2" edge="1">
          <mxGeometry relative="1" as="geometry" />
        </mxCell>
        <mxCell id="llBUORUY88bAsxmRDZ6o-1" style="edgeStyle=orthogonalEdgeStyle;rounded=0;orthogonalLoop=1;jettySize=auto;html=1;exitX=1;exitY=0.5;exitDx=0;exitDy=0;entryX=0;entryY=0.5;entryDx=0;entryDy=0;" parent="1" source="iYixckULshKqDGNZfNxG-30" target="lGU6is1oW97Xrm3RdDfL-14" edge="1">
          <mxGeometry relative="1" as="geometry" />
        </mxCell>
      </root>
    </mxGraphModel>
  </diagram>
  <diagram id="1fOrf151GSpBAP1OI8Jt" name="PaintsInStyle">
    <mxGraphModel dx="1600" dy="2095" grid="1" gridSize="10" guides="1" tooltips="1" connect="1" arrows="1" fold="1" page="1" pageScale="1" pageWidth="827" pageHeight="1169" math="0" shadow="0">
      <root>
        <mxCell id="0" />
        <mxCell id="1" parent="0" />
        <mxCell id="c21CGDc8X_oEIcp2JR8C-1" value="" style="group" vertex="1" connectable="0" parent="1">
          <mxGeometry x="520" y="-710" width="120" height="120" as="geometry" />
        </mxCell>
        <mxCell id="c21CGDc8X_oEIcp2JR8C-2" value="" style="ellipse;whiteSpace=wrap;html=1;aspect=fixed;" vertex="1" parent="c21CGDc8X_oEIcp2JR8C-1">
          <mxGeometry width="120" height="120" as="geometry" />
        </mxCell>
        <mxCell id="c21CGDc8X_oEIcp2JR8C-3" value="1" style="ellipse;whiteSpace=wrap;html=1;aspect=fixed;" vertex="1" parent="c21CGDc8X_oEIcp2JR8C-1">
          <mxGeometry x="35" width="50" height="50" as="geometry" />
        </mxCell>
        <mxCell id="c21CGDc8X_oEIcp2JR8C-4" value="Леонардо да Винчи" style="text;html=1;align=center;verticalAlign=middle;whiteSpace=wrap;rounded=0;" vertex="1" parent="c21CGDc8X_oEIcp2JR8C-1">
          <mxGeometry x="15" y="60" width="90" height="30" as="geometry" />
        </mxCell>
        <mxCell id="c21CGDc8X_oEIcp2JR8C-5" value="" style="group" vertex="1" connectable="0" parent="1">
          <mxGeometry x="520" y="-870" width="120" height="120" as="geometry" />
        </mxCell>
        <mxCell id="c21CGDc8X_oEIcp2JR8C-6" value="" style="ellipse;whiteSpace=wrap;html=1;aspect=fixed;" vertex="1" parent="c21CGDc8X_oEIcp2JR8C-5">
          <mxGeometry width="120" height="120" as="geometry" />
        </mxCell>
        <mxCell id="c21CGDc8X_oEIcp2JR8C-7" value="2" style="ellipse;whiteSpace=wrap;html=1;aspect=fixed;" vertex="1" parent="c21CGDc8X_oEIcp2JR8C-5">
          <mxGeometry x="35" width="50" height="50" as="geometry" />
        </mxCell>
        <mxCell id="c21CGDc8X_oEIcp2JR8C-8" value="Винсент ван Гог" style="text;html=1;align=center;verticalAlign=middle;whiteSpace=wrap;rounded=0;" vertex="1" parent="c21CGDc8X_oEIcp2JR8C-5">
          <mxGeometry x="12.5" y="60" width="95" height="30" as="geometry" />
        </mxCell>
        <mxCell id="c21CGDc8X_oEIcp2JR8C-9" value="" style="group" vertex="1" connectable="0" parent="1">
          <mxGeometry x="730" y="-710" width="120" height="120" as="geometry" />
        </mxCell>
        <mxCell id="c21CGDc8X_oEIcp2JR8C-10" value="" style="ellipse;whiteSpace=wrap;html=1;aspect=fixed;" vertex="1" parent="c21CGDc8X_oEIcp2JR8C-9">
          <mxGeometry width="120" height="120" as="geometry" />
        </mxCell>
        <mxCell id="c21CGDc8X_oEIcp2JR8C-11" value="3" style="ellipse;whiteSpace=wrap;html=1;aspect=fixed;" vertex="1" parent="c21CGDc8X_oEIcp2JR8C-9">
          <mxGeometry x="35" width="50" height="50" as="geometry" />
        </mxCell>
        <mxCell id="c21CGDc8X_oEIcp2JR8C-12" value="Пабло Пикассо" style="text;html=1;align=center;verticalAlign=middle;whiteSpace=wrap;rounded=0;" vertex="1" parent="c21CGDc8X_oEIcp2JR8C-9">
          <mxGeometry x="22" y="60" width="76" height="30" as="geometry" />
        </mxCell>
        <mxCell id="c21CGDc8X_oEIcp2JR8C-13" value="" style="group" vertex="1" connectable="0" parent="1">
          <mxGeometry x="330" y="-720" width="120" height="120" as="geometry" />
        </mxCell>
        <mxCell id="c21CGDc8X_oEIcp2JR8C-14" value="" style="ellipse;whiteSpace=wrap;html=1;aspect=fixed;" vertex="1" parent="c21CGDc8X_oEIcp2JR8C-13">
          <mxGeometry width="120" height="120" as="geometry" />
        </mxCell>
        <mxCell id="c21CGDc8X_oEIcp2JR8C-15" value="4" style="ellipse;whiteSpace=wrap;html=1;aspect=fixed;" vertex="1" parent="c21CGDc8X_oEIcp2JR8C-13">
          <mxGeometry x="35" width="50" height="50" as="geometry" />
        </mxCell>
        <mxCell id="c21CGDc8X_oEIcp2JR8C-16" value="Клод Моне" style="text;html=1;align=center;verticalAlign=middle;whiteSpace=wrap;rounded=0;" vertex="1" parent="c21CGDc8X_oEIcp2JR8C-13">
          <mxGeometry x="17.5" y="60" width="85" height="30" as="geometry" />
        </mxCell>
        <mxCell id="c21CGDc8X_oEIcp2JR8C-17" value="" style="group" vertex="1" connectable="0" parent="1">
          <mxGeometry x="520" y="-400" width="120" height="120" as="geometry" />
        </mxCell>
        <mxCell id="k6b65i37ghTgkm258Rhg-74" style="edgeStyle=orthogonalEdgeStyle;rounded=0;orthogonalLoop=1;jettySize=auto;html=1;exitX=1;exitY=1;exitDx=0;exitDy=0;entryX=1;entryY=1;entryDx=0;entryDy=0;" edge="1" parent="c21CGDc8X_oEIcp2JR8C-17" source="c21CGDc8X_oEIcp2JR8C-18" target="c21CGDc8X_oEIcp2JR8C-20">
          <mxGeometry relative="1" as="geometry" />
        </mxCell>
        <mxCell id="c21CGDc8X_oEIcp2JR8C-18" value="" style="ellipse;whiteSpace=wrap;html=1;aspect=fixed;" vertex="1" parent="c21CGDc8X_oEIcp2JR8C-17">
          <mxGeometry width="120" height="120" as="geometry" />
        </mxCell>
        <mxCell id="c21CGDc8X_oEIcp2JR8C-19" value="5" style="ellipse;whiteSpace=wrap;html=1;aspect=fixed;" vertex="1" parent="c21CGDc8X_oEIcp2JR8C-17">
          <mxGeometry x="35" width="50" height="50" as="geometry" />
        </mxCell>
        <mxCell id="c21CGDc8X_oEIcp2JR8C-20" value="Сальвадор Дали" style="text;html=1;align=center;verticalAlign=middle;whiteSpace=wrap;rounded=0;" vertex="1" parent="c21CGDc8X_oEIcp2JR8C-17">
          <mxGeometry x="30" y="60" width="60" height="30" as="geometry" />
        </mxCell>
        <mxCell id="c21CGDc8X_oEIcp2JR8C-21" value="" style="group" vertex="1" connectable="0" parent="1">
          <mxGeometry x="910" y="-550" width="120" height="120" as="geometry" />
        </mxCell>
        <mxCell id="c21CGDc8X_oEIcp2JR8C-22" value="" style="ellipse;whiteSpace=wrap;html=1;aspect=fixed;" vertex="1" parent="c21CGDc8X_oEIcp2JR8C-21">
          <mxGeometry width="120" height="120" as="geometry" />
        </mxCell>
        <mxCell id="c21CGDc8X_oEIcp2JR8C-23" value="6" style="ellipse;whiteSpace=wrap;html=1;aspect=fixed;" vertex="1" parent="c21CGDc8X_oEIcp2JR8C-21">
          <mxGeometry x="35" width="50" height="50" as="geometry" />
        </mxCell>
        <mxCell id="c21CGDc8X_oEIcp2JR8C-24" value="Рембрандт" style="text;html=1;align=center;verticalAlign=middle;whiteSpace=wrap;rounded=0;" vertex="1" parent="c21CGDc8X_oEIcp2JR8C-21">
          <mxGeometry x="10" y="60" width="110" height="30" as="geometry" />
        </mxCell>
        <mxCell id="c21CGDc8X_oEIcp2JR8C-25" value="" style="group" vertex="1" connectable="0" parent="1">
          <mxGeometry x="330" y="-555" width="120" height="120" as="geometry" />
        </mxCell>
        <mxCell id="c21CGDc8X_oEIcp2JR8C-26" value="" style="ellipse;whiteSpace=wrap;html=1;aspect=fixed;" vertex="1" parent="c21CGDc8X_oEIcp2JR8C-25">
          <mxGeometry width="120" height="120" as="geometry" />
        </mxCell>
        <mxCell id="c21CGDc8X_oEIcp2JR8C-27" value="7" style="ellipse;whiteSpace=wrap;html=1;aspect=fixed;" vertex="1" parent="c21CGDc8X_oEIcp2JR8C-25">
          <mxGeometry x="35" width="50" height="50" as="geometry" />
        </mxCell>
        <mxCell id="c21CGDc8X_oEIcp2JR8C-28" value="Микеланджело" style="text;html=1;align=center;verticalAlign=middle;whiteSpace=wrap;rounded=0;" vertex="1" parent="c21CGDc8X_oEIcp2JR8C-25">
          <mxGeometry x="25" y="60" width="75" height="30" as="geometry" />
        </mxCell>
        <mxCell id="c21CGDc8X_oEIcp2JR8C-29" value="" style="group" vertex="1" connectable="0" parent="1">
          <mxGeometry x="730" y="-1030" width="120" height="120" as="geometry" />
        </mxCell>
        <mxCell id="c21CGDc8X_oEIcp2JR8C-30" value="" style="ellipse;whiteSpace=wrap;html=1;aspect=fixed;" vertex="1" parent="c21CGDc8X_oEIcp2JR8C-29">
          <mxGeometry width="120" height="120" as="geometry" />
        </mxCell>
        <mxCell id="c21CGDc8X_oEIcp2JR8C-31" value="8" style="ellipse;whiteSpace=wrap;html=1;aspect=fixed;" vertex="1" parent="c21CGDc8X_oEIcp2JR8C-29">
          <mxGeometry x="37" y="2" width="46" height="46" as="geometry" />
        </mxCell>
        <mxCell id="c21CGDc8X_oEIcp2JR8C-32" value="Эдвард Мунк" style="text;html=1;align=center;verticalAlign=middle;whiteSpace=wrap;rounded=0;" vertex="1" parent="c21CGDc8X_oEIcp2JR8C-29">
          <mxGeometry x="19" y="60" width="81" height="30" as="geometry" />
        </mxCell>
        <mxCell id="c21CGDc8X_oEIcp2JR8C-33" value="" style="group" vertex="1" connectable="0" parent="1">
          <mxGeometry x="1080" y="-867.5" width="120" height="120" as="geometry" />
        </mxCell>
        <mxCell id="c21CGDc8X_oEIcp2JR8C-34" value="" style="ellipse;whiteSpace=wrap;html=1;aspect=fixed;" vertex="1" parent="c21CGDc8X_oEIcp2JR8C-33">
          <mxGeometry width="120" height="120" as="geometry" />
        </mxCell>
        <mxCell id="c21CGDc8X_oEIcp2JR8C-35" value="9" style="ellipse;whiteSpace=wrap;html=1;aspect=fixed;" vertex="1" parent="c21CGDc8X_oEIcp2JR8C-33">
          <mxGeometry x="35" width="50" height="50" as="geometry" />
        </mxCell>
        <mxCell id="c21CGDc8X_oEIcp2JR8C-36" value="Казимир Малевич" style="text;html=1;align=center;verticalAlign=middle;whiteSpace=wrap;rounded=0;" vertex="1" parent="c21CGDc8X_oEIcp2JR8C-33">
          <mxGeometry x="30" y="60" width="60" height="30" as="geometry" />
        </mxCell>
        <mxCell id="c21CGDc8X_oEIcp2JR8C-37" value="" style="group" vertex="1" connectable="0" parent="1">
          <mxGeometry x="1080" y="-704" width="120" height="120" as="geometry" />
        </mxCell>
        <mxCell id="c21CGDc8X_oEIcp2JR8C-38" value="" style="ellipse;whiteSpace=wrap;html=1;aspect=fixed;" vertex="1" parent="c21CGDc8X_oEIcp2JR8C-37">
          <mxGeometry width="120" height="120" as="geometry" />
        </mxCell>
        <mxCell id="c21CGDc8X_oEIcp2JR8C-39" value="10" style="ellipse;whiteSpace=wrap;html=1;aspect=fixed;" vertex="1" parent="c21CGDc8X_oEIcp2JR8C-37">
          <mxGeometry x="35" width="50" height="50" as="geometry" />
        </mxCell>
        <mxCell id="c21CGDc8X_oEIcp2JR8C-40" value="Иван Шишкин" style="text;html=1;align=center;verticalAlign=middle;whiteSpace=wrap;rounded=0;" vertex="1" parent="c21CGDc8X_oEIcp2JR8C-37">
          <mxGeometry x="10" y="60" width="105" height="30" as="geometry" />
        </mxCell>
        <mxCell id="k6b65i37ghTgkm258Rhg-1" value="" style="group" vertex="1" connectable="0" parent="1">
          <mxGeometry x="310" y="-880" width="160" height="115" as="geometry" />
        </mxCell>
        <mxCell id="k6b65i37ghTgkm258Rhg-2" value="" style="ellipse;shape=cloud;whiteSpace=wrap;html=1;" vertex="1" parent="k6b65i37ghTgkm258Rhg-1">
          <mxGeometry y="5" width="160" height="110" as="geometry" />
        </mxCell>
        <mxCell id="k6b65i37ghTgkm258Rhg-3" value="2" style="ellipse;shape=cloud;whiteSpace=wrap;html=1;" vertex="1" parent="k6b65i37ghTgkm258Rhg-1">
          <mxGeometry x="32.72999999999999" width="67.27" height="60" as="geometry" />
        </mxCell>
        <mxCell id="k6b65i37ghTgkm258Rhg-4" value="Постимпрессиониз" style="text;html=1;align=center;verticalAlign=middle;whiteSpace=wrap;rounded=0;" vertex="1" parent="k6b65i37ghTgkm258Rhg-1">
          <mxGeometry x="60" y="55" width="60" height="30" as="geometry" />
        </mxCell>
        <mxCell id="k6b65i37ghTgkm258Rhg-5" value="" style="group" vertex="1" connectable="0" parent="1">
          <mxGeometry x="510" y="-555" width="160" height="115" as="geometry" />
        </mxCell>
        <mxCell id="k6b65i37ghTgkm258Rhg-6" value="" style="ellipse;shape=cloud;whiteSpace=wrap;html=1;" vertex="1" parent="k6b65i37ghTgkm258Rhg-5">
          <mxGeometry y="5" width="160" height="110" as="geometry" />
        </mxCell>
        <mxCell id="k6b65i37ghTgkm258Rhg-7" value="1" style="ellipse;shape=cloud;whiteSpace=wrap;html=1;" vertex="1" parent="k6b65i37ghTgkm258Rhg-5">
          <mxGeometry x="32.72999999999999" width="67.27" height="60" as="geometry" />
        </mxCell>
        <mxCell id="k6b65i37ghTgkm258Rhg-8" value="Ренессанс" style="text;html=1;align=center;verticalAlign=middle;whiteSpace=wrap;rounded=0;" vertex="1" parent="k6b65i37ghTgkm258Rhg-5">
          <mxGeometry x="50" y="55" width="60" height="30" as="geometry" />
        </mxCell>
        <mxCell id="k6b65i37ghTgkm258Rhg-9" value="" style="group" vertex="1" connectable="0" parent="1">
          <mxGeometry x="700" y="-870" width="160" height="115" as="geometry" />
        </mxCell>
        <mxCell id="k6b65i37ghTgkm258Rhg-10" value="" style="ellipse;shape=cloud;whiteSpace=wrap;html=1;" vertex="1" parent="k6b65i37ghTgkm258Rhg-9">
          <mxGeometry y="5" width="160" height="110" as="geometry" />
        </mxCell>
        <mxCell id="k6b65i37ghTgkm258Rhg-11" value="7" style="ellipse;shape=cloud;whiteSpace=wrap;html=1;" vertex="1" parent="k6b65i37ghTgkm258Rhg-9">
          <mxGeometry x="32.72999999999999" width="67.27" height="60" as="geometry" />
        </mxCell>
        <mxCell id="k6b65i37ghTgkm258Rhg-12" value="Экспрессионизм" style="text;html=1;align=center;verticalAlign=middle;whiteSpace=wrap;rounded=0;" vertex="1" parent="k6b65i37ghTgkm258Rhg-9">
          <mxGeometry x="50" y="55" width="60" height="30" as="geometry" />
        </mxCell>
        <mxCell id="k6b65i37ghTgkm258Rhg-13" value="" style="group" vertex="1" connectable="0" parent="1">
          <mxGeometry x="1060" y="-547.5" width="160" height="115" as="geometry" />
        </mxCell>
        <mxCell id="k6b65i37ghTgkm258Rhg-14" value="" style="ellipse;shape=cloud;whiteSpace=wrap;html=1;" vertex="1" parent="k6b65i37ghTgkm258Rhg-13">
          <mxGeometry y="5" width="160" height="110" as="geometry" />
        </mxCell>
        <mxCell id="k6b65i37ghTgkm258Rhg-15" value="6" style="ellipse;shape=cloud;whiteSpace=wrap;html=1;" vertex="1" parent="k6b65i37ghTgkm258Rhg-13">
          <mxGeometry x="32.72999999999999" width="67.27" height="60" as="geometry" />
        </mxCell>
        <mxCell id="k6b65i37ghTgkm258Rhg-16" value="Барокко" style="text;html=1;align=center;verticalAlign=middle;whiteSpace=wrap;rounded=0;" vertex="1" parent="k6b65i37ghTgkm258Rhg-13">
          <mxGeometry x="50" y="55" width="60" height="30" as="geometry" />
        </mxCell>
        <mxCell id="k6b65i37ghTgkm258Rhg-17" value="" style="group" vertex="1" connectable="0" parent="1">
          <mxGeometry x="880" y="-867.5" width="160" height="115" as="geometry" />
        </mxCell>
        <mxCell id="k6b65i37ghTgkm258Rhg-18" value="" style="ellipse;shape=cloud;whiteSpace=wrap;html=1;" vertex="1" parent="k6b65i37ghTgkm258Rhg-17">
          <mxGeometry y="5" width="160" height="110" as="geometry" />
        </mxCell>
        <mxCell id="k6b65i37ghTgkm258Rhg-19" value="3" style="ellipse;shape=cloud;whiteSpace=wrap;html=1;" vertex="1" parent="k6b65i37ghTgkm258Rhg-17">
          <mxGeometry x="32.72999999999999" width="67.27" height="60" as="geometry" />
        </mxCell>
        <mxCell id="k6b65i37ghTgkm258Rhg-20" value="Кубизм" style="text;html=1;align=center;verticalAlign=middle;whiteSpace=wrap;rounded=0;" vertex="1" parent="k6b65i37ghTgkm258Rhg-17">
          <mxGeometry x="50" y="55" width="60" height="30" as="geometry" />
        </mxCell>
        <mxCell id="k6b65i37ghTgkm258Rhg-21" value="" style="group" vertex="1" connectable="0" parent="1">
          <mxGeometry x="140" y="-715" width="160" height="115" as="geometry" />
        </mxCell>
        <mxCell id="k6b65i37ghTgkm258Rhg-73" style="edgeStyle=orthogonalEdgeStyle;rounded=0;orthogonalLoop=1;jettySize=auto;html=1;exitX=0.55;exitY=0.95;exitDx=0;exitDy=0;exitPerimeter=0;entryX=0.75;entryY=1;entryDx=0;entryDy=0;" edge="1" parent="k6b65i37ghTgkm258Rhg-21" source="k6b65i37ghTgkm258Rhg-22" target="k6b65i37ghTgkm258Rhg-24">
          <mxGeometry relative="1" as="geometry" />
        </mxCell>
        <mxCell id="k6b65i37ghTgkm258Rhg-22" value="" style="ellipse;shape=cloud;whiteSpace=wrap;html=1;" vertex="1" parent="k6b65i37ghTgkm258Rhg-21">
          <mxGeometry width="160" height="110" as="geometry" />
        </mxCell>
        <mxCell id="k6b65i37ghTgkm258Rhg-23" value="4" style="ellipse;shape=cloud;whiteSpace=wrap;html=1;" vertex="1" parent="k6b65i37ghTgkm258Rhg-21">
          <mxGeometry x="32.72999999999999" width="67.27" height="60" as="geometry" />
        </mxCell>
        <mxCell id="k6b65i37ghTgkm258Rhg-24" value="Импрессионизм" style="text;html=1;align=center;verticalAlign=middle;whiteSpace=wrap;rounded=0;" vertex="1" parent="k6b65i37ghTgkm258Rhg-21">
          <mxGeometry x="50" y="55" width="60" height="30" as="geometry" />
        </mxCell>
        <mxCell id="k6b65i37ghTgkm258Rhg-25" value="" style="group" vertex="1" connectable="0" parent="1">
          <mxGeometry x="1050" y="-1030" width="160" height="115" as="geometry" />
        </mxCell>
        <mxCell id="k6b65i37ghTgkm258Rhg-26" value="" style="ellipse;shape=cloud;whiteSpace=wrap;html=1;" vertex="1" parent="k6b65i37ghTgkm258Rhg-25">
          <mxGeometry y="5" width="160" height="110" as="geometry" />
        </mxCell>
        <mxCell id="k6b65i37ghTgkm258Rhg-27" value="8" style="ellipse;shape=cloud;whiteSpace=wrap;html=1;" vertex="1" parent="k6b65i37ghTgkm258Rhg-25">
          <mxGeometry x="32.72999999999999" width="67.27" height="60" as="geometry" />
        </mxCell>
        <mxCell id="k6b65i37ghTgkm258Rhg-28" value="Супрематизм" style="text;html=1;align=center;verticalAlign=middle;whiteSpace=wrap;rounded=0;" vertex="1" parent="k6b65i37ghTgkm258Rhg-25">
          <mxGeometry x="50" y="55" width="60" height="30" as="geometry" />
        </mxCell>
        <mxCell id="k6b65i37ghTgkm258Rhg-29" value="" style="group" vertex="1" connectable="0" parent="1">
          <mxGeometry x="880" y="-707.5" width="160" height="115" as="geometry" />
        </mxCell>
        <mxCell id="k6b65i37ghTgkm258Rhg-30" value="" style="ellipse;shape=cloud;whiteSpace=wrap;html=1;" vertex="1" parent="k6b65i37ghTgkm258Rhg-29">
          <mxGeometry y="5" width="160" height="110" as="geometry" />
        </mxCell>
        <mxCell id="k6b65i37ghTgkm258Rhg-31" value="9" style="ellipse;shape=cloud;whiteSpace=wrap;html=1;" vertex="1" parent="k6b65i37ghTgkm258Rhg-29">
          <mxGeometry x="32.72999999999999" width="67.27" height="60" as="geometry" />
        </mxCell>
        <mxCell id="k6b65i37ghTgkm258Rhg-32" value="Реализм" style="text;html=1;align=center;verticalAlign=middle;whiteSpace=wrap;rounded=0;" vertex="1" parent="k6b65i37ghTgkm258Rhg-29">
          <mxGeometry x="50" y="55" width="60" height="30" as="geometry" />
        </mxCell>
        <mxCell id="k6b65i37ghTgkm258Rhg-33" value="" style="group" vertex="1" connectable="0" parent="1">
          <mxGeometry x="700" y="-550" width="160" height="115" as="geometry" />
        </mxCell>
        <mxCell id="k6b65i37ghTgkm258Rhg-34" value="" style="ellipse;shape=cloud;whiteSpace=wrap;html=1;" vertex="1" parent="k6b65i37ghTgkm258Rhg-33">
          <mxGeometry y="5" width="160" height="110" as="geometry" />
        </mxCell>
        <mxCell id="k6b65i37ghTgkm258Rhg-35" value="5" style="ellipse;shape=cloud;whiteSpace=wrap;html=1;" vertex="1" parent="k6b65i37ghTgkm258Rhg-33">
          <mxGeometry x="32.72999999999999" width="67.27" height="60" as="geometry" />
        </mxCell>
        <mxCell id="k6b65i37ghTgkm258Rhg-36" value="Сюрреализм" style="text;html=1;align=center;verticalAlign=middle;whiteSpace=wrap;rounded=0;" vertex="1" parent="k6b65i37ghTgkm258Rhg-33">
          <mxGeometry x="50" y="55" width="60" height="30" as="geometry" />
        </mxCell>
        <mxCell id="k6b65i37ghTgkm258Rhg-37" value="" style="group" vertex="1" connectable="0" parent="1">
          <mxGeometry x="500" y="-1027.5" width="160" height="115" as="geometry" />
        </mxCell>
        <mxCell id="k6b65i37ghTgkm258Rhg-38" value="" style="ellipse;shape=cloud;whiteSpace=wrap;html=1;" vertex="1" parent="k6b65i37ghTgkm258Rhg-37">
          <mxGeometry y="5" width="160" height="110" as="geometry" />
        </mxCell>
        <mxCell id="k6b65i37ghTgkm258Rhg-39" value="10" style="ellipse;shape=cloud;whiteSpace=wrap;html=1;" vertex="1" parent="k6b65i37ghTgkm258Rhg-37">
          <mxGeometry x="32.72999999999999" width="67.27" height="60" as="geometry" />
        </mxCell>
        <mxCell id="k6b65i37ghTgkm258Rhg-40" value="Символизм" style="text;html=1;align=center;verticalAlign=middle;whiteSpace=wrap;rounded=0;" vertex="1" parent="k6b65i37ghTgkm258Rhg-37">
          <mxGeometry x="50" y="55" width="60" height="30" as="geometry" />
        </mxCell>
        <mxCell id="k6b65i37ghTgkm258Rhg-47" style="edgeStyle=orthogonalEdgeStyle;rounded=0;orthogonalLoop=1;jettySize=auto;html=1;exitX=1;exitY=0.5;exitDx=0;exitDy=0;entryX=0.106;entryY=0.499;entryDx=0;entryDy=0;entryPerimeter=0;" edge="1" parent="1" source="c21CGDc8X_oEIcp2JR8C-6" target="k6b65i37ghTgkm258Rhg-10">
          <mxGeometry relative="1" as="geometry" />
        </mxCell>
        <mxCell id="k6b65i37ghTgkm258Rhg-52" style="edgeStyle=orthogonalEdgeStyle;rounded=0;orthogonalLoop=1;jettySize=auto;html=1;exitX=1;exitY=0.5;exitDx=0;exitDy=0;entryX=0.125;entryY=0.482;entryDx=0;entryDy=0;entryPerimeter=0;" edge="1" parent="1" source="c21CGDc8X_oEIcp2JR8C-10" target="k6b65i37ghTgkm258Rhg-30">
          <mxGeometry relative="1" as="geometry" />
        </mxCell>
        <mxCell id="k6b65i37ghTgkm258Rhg-53" style="edgeStyle=orthogonalEdgeStyle;rounded=0;orthogonalLoop=1;jettySize=auto;html=1;exitX=0;exitY=0.5;exitDx=0;exitDy=0;entryX=0.875;entryY=0.5;entryDx=0;entryDy=0;entryPerimeter=0;" edge="1" parent="1" source="c21CGDc8X_oEIcp2JR8C-14" target="k6b65i37ghTgkm258Rhg-22">
          <mxGeometry relative="1" as="geometry" />
        </mxCell>
        <mxCell id="k6b65i37ghTgkm258Rhg-63" style="edgeStyle=orthogonalEdgeStyle;rounded=0;orthogonalLoop=1;jettySize=auto;html=1;exitX=0.5;exitY=0;exitDx=0;exitDy=0;entryX=0.568;entryY=0.929;entryDx=0;entryDy=0;entryPerimeter=0;" edge="1" parent="1" source="c21CGDc8X_oEIcp2JR8C-35" target="k6b65i37ghTgkm258Rhg-26">
          <mxGeometry relative="1" as="geometry" />
        </mxCell>
        <mxCell id="k6b65i37ghTgkm258Rhg-65" style="edgeStyle=orthogonalEdgeStyle;rounded=0;orthogonalLoop=1;jettySize=auto;html=1;exitX=1;exitY=0.5;exitDx=0;exitDy=0;entryX=0.098;entryY=0.493;entryDx=0;entryDy=0;entryPerimeter=0;" edge="1" parent="1" source="c21CGDc8X_oEIcp2JR8C-26" target="k6b65i37ghTgkm258Rhg-6">
          <mxGeometry relative="1" as="geometry" />
        </mxCell>
        <mxCell id="k6b65i37ghTgkm258Rhg-67" style="edgeStyle=orthogonalEdgeStyle;rounded=0;orthogonalLoop=1;jettySize=auto;html=1;exitX=0;exitY=0.5;exitDx=0;exitDy=0;entryX=0.87;entryY=0.476;entryDx=0;entryDy=0;entryPerimeter=0;" edge="1" parent="1" source="c21CGDc8X_oEIcp2JR8C-30" target="k6b65i37ghTgkm258Rhg-38">
          <mxGeometry relative="1" as="geometry" />
        </mxCell>
        <mxCell id="k6b65i37ghTgkm258Rhg-68" style="edgeStyle=orthogonalEdgeStyle;rounded=0;orthogonalLoop=1;jettySize=auto;html=1;exitX=0.5;exitY=1;exitDx=0;exitDy=0;entryX=0.848;entryY=0.333;entryDx=0;entryDy=0;entryPerimeter=0;" edge="1" parent="1" source="c21CGDc8X_oEIcp2JR8C-30" target="k6b65i37ghTgkm258Rhg-11">
          <mxGeometry relative="1" as="geometry" />
        </mxCell>
        <mxCell id="k6b65i37ghTgkm258Rhg-69" style="edgeStyle=orthogonalEdgeStyle;rounded=0;orthogonalLoop=1;jettySize=auto;html=1;exitX=0;exitY=0.5;exitDx=0;exitDy=0;entryX=0.937;entryY=0.596;entryDx=0;entryDy=0;entryPerimeter=0;" edge="1" parent="1" source="c21CGDc8X_oEIcp2JR8C-6" target="k6b65i37ghTgkm258Rhg-2">
          <mxGeometry relative="1" as="geometry" />
        </mxCell>
        <mxCell id="k6b65i37ghTgkm258Rhg-70" style="edgeStyle=orthogonalEdgeStyle;rounded=0;orthogonalLoop=1;jettySize=auto;html=1;exitX=0.5;exitY=1;exitDx=0;exitDy=0;entryX=0.563;entryY=0.177;entryDx=0;entryDy=0;entryPerimeter=0;" edge="1" parent="1" source="c21CGDc8X_oEIcp2JR8C-2" target="k6b65i37ghTgkm258Rhg-7">
          <mxGeometry relative="1" as="geometry" />
        </mxCell>
        <mxCell id="k6b65i37ghTgkm258Rhg-71" style="edgeStyle=orthogonalEdgeStyle;rounded=0;orthogonalLoop=1;jettySize=auto;html=1;exitX=0.5;exitY=1;exitDx=0;exitDy=0;entryX=0.851;entryY=0.242;entryDx=0;entryDy=0;entryPerimeter=0;" edge="1" parent="1" source="c21CGDc8X_oEIcp2JR8C-10" target="k6b65i37ghTgkm258Rhg-35">
          <mxGeometry relative="1" as="geometry" />
        </mxCell>
        <mxCell id="k6b65i37ghTgkm258Rhg-72" style="edgeStyle=orthogonalEdgeStyle;rounded=0;orthogonalLoop=1;jettySize=auto;html=1;exitX=0.5;exitY=0;exitDx=0;exitDy=0;entryX=0.567;entryY=0.924;entryDx=0;entryDy=0;entryPerimeter=0;" edge="1" parent="1" source="c21CGDc8X_oEIcp2JR8C-23" target="k6b65i37ghTgkm258Rhg-30">
          <mxGeometry relative="1" as="geometry" />
        </mxCell>
        <mxCell id="k6b65i37ghTgkm258Rhg-76" style="edgeStyle=orthogonalEdgeStyle;rounded=0;orthogonalLoop=1;jettySize=auto;html=1;exitX=0.5;exitY=0;exitDx=0;exitDy=0;entryX=0.438;entryY=0.895;entryDx=0;entryDy=0;entryPerimeter=0;" edge="1" parent="1" source="c21CGDc8X_oEIcp2JR8C-19" target="k6b65i37ghTgkm258Rhg-6">
          <mxGeometry relative="1" as="geometry" />
        </mxCell>
        <mxCell id="k6b65i37ghTgkm258Rhg-78" style="edgeStyle=orthogonalEdgeStyle;rounded=0;orthogonalLoop=1;jettySize=auto;html=1;exitX=1;exitY=0.5;exitDx=0;exitDy=0;entryX=0.55;entryY=0.95;entryDx=0;entryDy=0;entryPerimeter=0;" edge="1" parent="1" source="c21CGDc8X_oEIcp2JR8C-18" target="k6b65i37ghTgkm258Rhg-34">
          <mxGeometry relative="1" as="geometry" />
        </mxCell>
        <mxCell id="k6b65i37ghTgkm258Rhg-79" style="edgeStyle=orthogonalEdgeStyle;rounded=0;orthogonalLoop=1;jettySize=auto;html=1;exitX=1;exitY=0;exitDx=0;exitDy=0;entryX=0.13;entryY=0.77;entryDx=0;entryDy=0;entryPerimeter=0;" edge="1" parent="1" source="c21CGDc8X_oEIcp2JR8C-10" target="k6b65i37ghTgkm258Rhg-18">
          <mxGeometry relative="1" as="geometry" />
        </mxCell>
        <mxCell id="k6b65i37ghTgkm258Rhg-80" style="edgeStyle=orthogonalEdgeStyle;rounded=0;orthogonalLoop=1;jettySize=auto;html=1;exitX=1;exitY=0.25;exitDx=0;exitDy=0;entryX=0.16;entryY=0.55;entryDx=0;entryDy=0;entryPerimeter=0;" edge="1" parent="1" source="c21CGDc8X_oEIcp2JR8C-24" target="k6b65i37ghTgkm258Rhg-14">
          <mxGeometry relative="1" as="geometry" />
        </mxCell>
        <mxCell id="k6b65i37ghTgkm258Rhg-82" style="edgeStyle=orthogonalEdgeStyle;rounded=0;orthogonalLoop=1;jettySize=auto;html=1;exitX=0;exitY=0.5;exitDx=0;exitDy=0;entryX=0.875;entryY=0.5;entryDx=0;entryDy=0;entryPerimeter=0;" edge="1" parent="1" source="c21CGDc8X_oEIcp2JR8C-34" target="k6b65i37ghTgkm258Rhg-18">
          <mxGeometry relative="1" as="geometry" />
        </mxCell>
        <mxCell id="k6b65i37ghTgkm258Rhg-84" style="edgeStyle=orthogonalEdgeStyle;rounded=0;orthogonalLoop=1;jettySize=auto;html=1;exitX=0;exitY=0.5;exitDx=0;exitDy=0;entryX=0.906;entryY=0.54;entryDx=0;entryDy=0;entryPerimeter=0;" edge="1" parent="1" source="c21CGDc8X_oEIcp2JR8C-38" target="k6b65i37ghTgkm258Rhg-30">
          <mxGeometry relative="1" as="geometry" />
        </mxCell>
      </root>
    </mxGraphModel>
  </diagram>
  <diagram name="GalleryLocatedIn" id="pJLGFZ9VPyqrxY9lPA5A">
    <mxGraphModel dx="1067" dy="617" grid="1" gridSize="10" guides="1" tooltips="1" connect="1" arrows="1" fold="1" page="1" pageScale="1" pageWidth="827" pageHeight="1169" math="0" shadow="0">
      <root>
        <mxCell id="0" />
        <mxCell id="1" parent="0" />
        <mxCell id="xlh0F6zZwobTiLR0D3bZ-235" value="" style="group" parent="1" vertex="1" connectable="0">
          <mxGeometry x="81" y="320" width="130" height="90" as="geometry" />
        </mxCell>
        <mxCell id="xlh0F6zZwobTiLR0D3bZ-236" style="edgeStyle=orthogonalEdgeStyle;rounded=0;orthogonalLoop=1;jettySize=auto;html=1;exitX=0;exitY=0.75;exitDx=0;exitDy=0;entryX=1;entryY=1;entryDx=0;entryDy=0;" parent="xlh0F6zZwobTiLR0D3bZ-235" source="xlh0F6zZwobTiLR0D3bZ-237" target="xlh0F6zZwobTiLR0D3bZ-241" edge="1">
          <mxGeometry relative="1" as="geometry" />
        </mxCell>
        <mxCell id="xlh0F6zZwobTiLR0D3bZ-237" value="" style="triangle;whiteSpace=wrap;html=1;rotation=-90;" parent="xlh0F6zZwobTiLR0D3bZ-235" vertex="1">
          <mxGeometry x="20" y="-20" width="90" height="130" as="geometry" />
        </mxCell>
        <mxCell id="xlh0F6zZwobTiLR0D3bZ-238" value="" style="group" parent="xlh0F6zZwobTiLR0D3bZ-235" vertex="1" connectable="0">
          <mxGeometry x="35" width="60" height="41.110000000000014" as="geometry" />
        </mxCell>
        <mxCell id="xlh0F6zZwobTiLR0D3bZ-239" value="" style="triangle;whiteSpace=wrap;html=1;rotation=-90;" parent="xlh0F6zZwobTiLR0D3bZ-238" vertex="1">
          <mxGeometry x="10" y="-8.889999999999986" width="40" height="57.78" as="geometry" />
        </mxCell>
        <mxCell id="xlh0F6zZwobTiLR0D3bZ-240" value="2" style="text;html=1;align=center;verticalAlign=middle;whiteSpace=wrap;rounded=0;" parent="xlh0F6zZwobTiLR0D3bZ-238" vertex="1">
          <mxGeometry y="11.110000000000014" width="60" height="30" as="geometry" />
        </mxCell>
        <mxCell id="xlh0F6zZwobTiLR0D3bZ-241" value="Нидерланды" style="text;html=1;align=center;verticalAlign=middle;whiteSpace=wrap;rounded=0;" parent="xlh0F6zZwobTiLR0D3bZ-235" vertex="1">
          <mxGeometry x="32.5" y="50" width="65" height="30" as="geometry" />
        </mxCell>
        <mxCell id="xlh0F6zZwobTiLR0D3bZ-242" value="" style="group" parent="1" vertex="1" connectable="0">
          <mxGeometry x="501" y="320" width="130" height="90" as="geometry" />
        </mxCell>
        <mxCell id="xlh0F6zZwobTiLR0D3bZ-243" value="" style="triangle;whiteSpace=wrap;html=1;rotation=-90;" parent="xlh0F6zZwobTiLR0D3bZ-242" vertex="1">
          <mxGeometry x="20" y="-20" width="90" height="130" as="geometry" />
        </mxCell>
        <mxCell id="xlh0F6zZwobTiLR0D3bZ-244" value="" style="group" parent="xlh0F6zZwobTiLR0D3bZ-242" vertex="1" connectable="0">
          <mxGeometry x="35" width="60" height="41.110000000000014" as="geometry" />
        </mxCell>
        <mxCell id="xlh0F6zZwobTiLR0D3bZ-245" value="" style="triangle;whiteSpace=wrap;html=1;rotation=-90;" parent="xlh0F6zZwobTiLR0D3bZ-244" vertex="1">
          <mxGeometry x="10" y="-8.889999999999986" width="40" height="57.78" as="geometry" />
        </mxCell>
        <mxCell id="xlh0F6zZwobTiLR0D3bZ-246" value="3" style="text;html=1;align=center;verticalAlign=middle;whiteSpace=wrap;rounded=0;" parent="xlh0F6zZwobTiLR0D3bZ-244" vertex="1">
          <mxGeometry y="11.110000000000014" width="60" height="30" as="geometry" />
        </mxCell>
        <mxCell id="xlh0F6zZwobTiLR0D3bZ-247" value="Испания" style="text;html=1;align=center;verticalAlign=middle;whiteSpace=wrap;rounded=0;" parent="xlh0F6zZwobTiLR0D3bZ-242" vertex="1">
          <mxGeometry x="32.5" y="50" width="65" height="30" as="geometry" />
        </mxCell>
        <mxCell id="xlh0F6zZwobTiLR0D3bZ-248" value="" style="group" parent="1" vertex="1" connectable="0">
          <mxGeometry x="291" y="320" width="130" height="90" as="geometry" />
        </mxCell>
        <mxCell id="xlh0F6zZwobTiLR0D3bZ-249" value="" style="triangle;whiteSpace=wrap;html=1;rotation=-90;" parent="xlh0F6zZwobTiLR0D3bZ-248" vertex="1">
          <mxGeometry x="20" y="-20" width="90" height="130" as="geometry" />
        </mxCell>
        <mxCell id="xlh0F6zZwobTiLR0D3bZ-250" value="" style="group" parent="xlh0F6zZwobTiLR0D3bZ-248" vertex="1" connectable="0">
          <mxGeometry x="35" width="60" height="41.110000000000014" as="geometry" />
        </mxCell>
        <mxCell id="xlh0F6zZwobTiLR0D3bZ-251" value="" style="triangle;whiteSpace=wrap;html=1;rotation=-90;" parent="xlh0F6zZwobTiLR0D3bZ-250" vertex="1">
          <mxGeometry x="10" y="-8.889999999999986" width="40" height="57.78" as="geometry" />
        </mxCell>
        <mxCell id="xlh0F6zZwobTiLR0D3bZ-252" value="4" style="text;html=1;align=center;verticalAlign=middle;whiteSpace=wrap;rounded=0;" parent="xlh0F6zZwobTiLR0D3bZ-250" vertex="1">
          <mxGeometry y="11.110000000000014" width="60" height="30" as="geometry" />
        </mxCell>
        <mxCell id="xlh0F6zZwobTiLR0D3bZ-253" value="Франция" style="text;html=1;align=center;verticalAlign=middle;whiteSpace=wrap;rounded=0;" parent="xlh0F6zZwobTiLR0D3bZ-248" vertex="1">
          <mxGeometry x="32.5" y="50" width="65" height="30" as="geometry" />
        </mxCell>
        <mxCell id="xlh0F6zZwobTiLR0D3bZ-254" value="" style="group" parent="1" vertex="1" connectable="0">
          <mxGeometry x="1141" y="320" width="130" height="90" as="geometry" />
        </mxCell>
        <mxCell id="xlh0F6zZwobTiLR0D3bZ-255" value="" style="triangle;whiteSpace=wrap;html=1;rotation=-90;" parent="xlh0F6zZwobTiLR0D3bZ-254" vertex="1">
          <mxGeometry x="20" y="-20" width="90" height="130" as="geometry" />
        </mxCell>
        <mxCell id="xlh0F6zZwobTiLR0D3bZ-256" value="" style="group" parent="xlh0F6zZwobTiLR0D3bZ-254" vertex="1" connectable="0">
          <mxGeometry x="35" width="60" height="41.110000000000014" as="geometry" />
        </mxCell>
        <mxCell id="xlh0F6zZwobTiLR0D3bZ-257" value="" style="triangle;whiteSpace=wrap;html=1;rotation=-90;" parent="xlh0F6zZwobTiLR0D3bZ-256" vertex="1">
          <mxGeometry x="10" y="-8.889999999999986" width="40" height="57.78" as="geometry" />
        </mxCell>
        <mxCell id="xlh0F6zZwobTiLR0D3bZ-258" value="7" style="text;html=1;align=center;verticalAlign=middle;whiteSpace=wrap;rounded=0;" parent="xlh0F6zZwobTiLR0D3bZ-256" vertex="1">
          <mxGeometry y="11.110000000000014" width="60" height="30" as="geometry" />
        </mxCell>
        <mxCell id="xlh0F6zZwobTiLR0D3bZ-259" value="Австрия" style="text;html=1;align=center;verticalAlign=middle;whiteSpace=wrap;rounded=0;" parent="xlh0F6zZwobTiLR0D3bZ-254" vertex="1">
          <mxGeometry x="32.5" y="50" width="65" height="30" as="geometry" />
        </mxCell>
        <mxCell id="xlh0F6zZwobTiLR0D3bZ-260" value="" style="group" parent="1" vertex="1" connectable="0">
          <mxGeometry x="711" y="320" width="130" height="90" as="geometry" />
        </mxCell>
        <mxCell id="xlh0F6zZwobTiLR0D3bZ-261" value="" style="triangle;whiteSpace=wrap;html=1;rotation=-90;" parent="xlh0F6zZwobTiLR0D3bZ-260" vertex="1">
          <mxGeometry x="20" y="-20" width="90" height="130" as="geometry" />
        </mxCell>
        <mxCell id="xlh0F6zZwobTiLR0D3bZ-262" value="" style="group" parent="xlh0F6zZwobTiLR0D3bZ-260" vertex="1" connectable="0">
          <mxGeometry x="35" width="60" height="41.110000000000014" as="geometry" />
        </mxCell>
        <mxCell id="xlh0F6zZwobTiLR0D3bZ-263" value="" style="triangle;whiteSpace=wrap;html=1;rotation=-90;" parent="xlh0F6zZwobTiLR0D3bZ-262" vertex="1">
          <mxGeometry x="10" y="-8.889999999999986" width="40" height="57.78" as="geometry" />
        </mxCell>
        <mxCell id="xlh0F6zZwobTiLR0D3bZ-264" value="6" style="text;html=1;align=center;verticalAlign=middle;whiteSpace=wrap;rounded=0;" parent="xlh0F6zZwobTiLR0D3bZ-262" vertex="1">
          <mxGeometry y="11.110000000000014" width="60" height="30" as="geometry" />
        </mxCell>
        <mxCell id="xlh0F6zZwobTiLR0D3bZ-265" value="Россия" style="text;html=1;align=center;verticalAlign=middle;whiteSpace=wrap;rounded=0;" parent="xlh0F6zZwobTiLR0D3bZ-260" vertex="1">
          <mxGeometry x="32.5" y="50" width="65" height="30" as="geometry" />
        </mxCell>
        <mxCell id="xlh0F6zZwobTiLR0D3bZ-266" value="" style="group" parent="1" vertex="1" connectable="0">
          <mxGeometry x="927" y="320" width="130" height="90" as="geometry" />
        </mxCell>
        <mxCell id="xlh0F6zZwobTiLR0D3bZ-267" value="" style="triangle;whiteSpace=wrap;html=1;rotation=-90;" parent="xlh0F6zZwobTiLR0D3bZ-266" vertex="1">
          <mxGeometry x="20" y="-20" width="90" height="130" as="geometry" />
        </mxCell>
        <mxCell id="xlh0F6zZwobTiLR0D3bZ-268" value="" style="group" parent="xlh0F6zZwobTiLR0D3bZ-266" vertex="1" connectable="0">
          <mxGeometry x="35" width="60" height="41.110000000000014" as="geometry" />
        </mxCell>
        <mxCell id="xlh0F6zZwobTiLR0D3bZ-269" value="" style="triangle;whiteSpace=wrap;html=1;rotation=-90;" parent="xlh0F6zZwobTiLR0D3bZ-268" vertex="1">
          <mxGeometry x="10" y="-8.889999999999986" width="40" height="57.78" as="geometry" />
        </mxCell>
        <mxCell id="xlh0F6zZwobTiLR0D3bZ-270" value="5" style="text;html=1;align=center;verticalAlign=middle;whiteSpace=wrap;rounded=0;" parent="xlh0F6zZwobTiLR0D3bZ-268" vertex="1">
          <mxGeometry y="11.110000000000014" width="60" height="30" as="geometry" />
        </mxCell>
        <mxCell id="xlh0F6zZwobTiLR0D3bZ-271" value="Норвегия" style="text;html=1;align=center;verticalAlign=middle;whiteSpace=wrap;rounded=0;" parent="xlh0F6zZwobTiLR0D3bZ-266" vertex="1">
          <mxGeometry x="32.5" y="50" width="65" height="30" as="geometry" />
        </mxCell>
        <mxCell id="xlh0F6zZwobTiLR0D3bZ-272" value="" style="group" parent="1" vertex="1" connectable="0">
          <mxGeometry x="701" y="470" width="150" height="100" as="geometry" />
        </mxCell>
        <mxCell id="xlh0F6zZwobTiLR0D3bZ-273" value="" style="rounded=0;whiteSpace=wrap;html=1;" parent="xlh0F6zZwobTiLR0D3bZ-272" vertex="1">
          <mxGeometry width="150" height="100" as="geometry" />
        </mxCell>
        <mxCell id="xlh0F6zZwobTiLR0D3bZ-274" value="10" style="rounded=0;whiteSpace=wrap;html=1;" parent="xlh0F6zZwobTiLR0D3bZ-272" vertex="1">
          <mxGeometry x="50" width="50" height="30" as="geometry" />
        </mxCell>
        <mxCell id="xlh0F6zZwobTiLR0D3bZ-275" value="&lt;font style=&quot;font-size: 14px;&quot;&gt;Эрмитаж&lt;/font&gt;" style="text;html=1;align=center;verticalAlign=middle;whiteSpace=wrap;rounded=0;" parent="xlh0F6zZwobTiLR0D3bZ-272" vertex="1">
          <mxGeometry x="41.66666666666667" y="40" width="66.66666666666667" height="45" as="geometry" />
        </mxCell>
        <mxCell id="xlh0F6zZwobTiLR0D3bZ-276" value="" style="group" parent="1" vertex="1" connectable="0">
          <mxGeometry x="491" y="470" width="150" height="100" as="geometry" />
        </mxCell>
        <mxCell id="xlh0F6zZwobTiLR0D3bZ-277" value="" style="rounded=0;whiteSpace=wrap;html=1;" parent="xlh0F6zZwobTiLR0D3bZ-276" vertex="1">
          <mxGeometry width="150" height="100" as="geometry" />
        </mxCell>
        <mxCell id="xlh0F6zZwobTiLR0D3bZ-278" value="5" style="rounded=0;whiteSpace=wrap;html=1;" parent="xlh0F6zZwobTiLR0D3bZ-276" vertex="1">
          <mxGeometry x="50" width="50" height="30" as="geometry" />
        </mxCell>
        <mxCell id="xlh0F6zZwobTiLR0D3bZ-279" value="&lt;font style=&quot;font-size: 14px;&quot;&gt;Музей Дали&lt;/font&gt;" style="text;html=1;align=center;verticalAlign=middle;whiteSpace=wrap;rounded=0;" parent="xlh0F6zZwobTiLR0D3bZ-276" vertex="1">
          <mxGeometry x="41.66666666666667" y="40" width="66.66666666666667" height="45" as="geometry" />
        </mxCell>
        <mxCell id="xlh0F6zZwobTiLR0D3bZ-280" value="" style="group" parent="1" vertex="1" connectable="0">
          <mxGeometry x="701" y="170" width="150" height="100" as="geometry" />
        </mxCell>
        <mxCell id="xlh0F6zZwobTiLR0D3bZ-281" value="" style="rounded=0;whiteSpace=wrap;html=1;" parent="xlh0F6zZwobTiLR0D3bZ-280" vertex="1">
          <mxGeometry width="150" height="100" as="geometry" />
        </mxCell>
        <mxCell id="xlh0F6zZwobTiLR0D3bZ-282" value="9" style="rounded=0;whiteSpace=wrap;html=1;" parent="xlh0F6zZwobTiLR0D3bZ-280" vertex="1">
          <mxGeometry x="50" width="50" height="30" as="geometry" />
        </mxCell>
        <mxCell id="xlh0F6zZwobTiLR0D3bZ-283" value="&lt;font style=&quot;font-size: 14px;&quot;&gt;Третьяковская галерея&lt;/font&gt;" style="text;html=1;align=center;verticalAlign=middle;whiteSpace=wrap;rounded=0;" parent="xlh0F6zZwobTiLR0D3bZ-280" vertex="1">
          <mxGeometry x="35.83" y="40" width="78.33" height="45" as="geometry" />
        </mxCell>
        <mxCell id="xlh0F6zZwobTiLR0D3bZ-284" value="" style="group" parent="1" vertex="1" connectable="0">
          <mxGeometry x="281" y="470" width="150" height="100" as="geometry" />
        </mxCell>
        <mxCell id="xlh0F6zZwobTiLR0D3bZ-285" value="" style="rounded=0;whiteSpace=wrap;html=1;" parent="xlh0F6zZwobTiLR0D3bZ-284" vertex="1">
          <mxGeometry width="150" height="100" as="geometry" />
        </mxCell>
        <mxCell id="xlh0F6zZwobTiLR0D3bZ-286" value="4" style="rounded=0;whiteSpace=wrap;html=1;" parent="xlh0F6zZwobTiLR0D3bZ-284" vertex="1">
          <mxGeometry x="50" width="50" height="30" as="geometry" />
        </mxCell>
        <mxCell id="xlh0F6zZwobTiLR0D3bZ-287" value="&lt;font style=&quot;font-size: 14px;&quot;&gt;Музей Орсе&lt;/font&gt;" style="text;html=1;align=center;verticalAlign=middle;whiteSpace=wrap;rounded=0;" parent="xlh0F6zZwobTiLR0D3bZ-284" vertex="1">
          <mxGeometry x="41.66666666666667" y="40" width="66.66666666666667" height="45" as="geometry" />
        </mxCell>
        <mxCell id="xlh0F6zZwobTiLR0D3bZ-288" value="" style="group" parent="1" vertex="1" connectable="0">
          <mxGeometry x="917" y="470" width="150" height="100" as="geometry" />
        </mxCell>
        <mxCell id="xlh0F6zZwobTiLR0D3bZ-289" value="" style="rounded=0;whiteSpace=wrap;html=1;" parent="xlh0F6zZwobTiLR0D3bZ-288" vertex="1">
          <mxGeometry width="150" height="100" as="geometry" />
        </mxCell>
        <mxCell id="xlh0F6zZwobTiLR0D3bZ-290" value="8" style="rounded=0;whiteSpace=wrap;html=1;" parent="xlh0F6zZwobTiLR0D3bZ-288" vertex="1">
          <mxGeometry x="50" width="50" height="30" as="geometry" />
        </mxCell>
        <mxCell id="xlh0F6zZwobTiLR0D3bZ-291" value="&lt;span style=&quot;font-size: 14px;&quot;&gt;Музей Мунка&lt;/span&gt;" style="text;html=1;align=center;verticalAlign=middle;whiteSpace=wrap;rounded=0;" parent="xlh0F6zZwobTiLR0D3bZ-288" vertex="1">
          <mxGeometry x="41.66666666666667" y="40" width="66.66666666666667" height="45" as="geometry" />
        </mxCell>
        <mxCell id="xlh0F6zZwobTiLR0D3bZ-292" value="" style="group" parent="1" vertex="1" connectable="0">
          <mxGeometry x="1131" y="470" width="150" height="100" as="geometry" />
        </mxCell>
        <mxCell id="xlh0F6zZwobTiLR0D3bZ-293" value="" style="rounded=0;whiteSpace=wrap;html=1;" parent="xlh0F6zZwobTiLR0D3bZ-292" vertex="1">
          <mxGeometry width="150" height="100" as="geometry" />
        </mxCell>
        <mxCell id="xlh0F6zZwobTiLR0D3bZ-294" value="7" style="rounded=0;whiteSpace=wrap;html=1;" parent="xlh0F6zZwobTiLR0D3bZ-292" vertex="1">
          <mxGeometry x="50" width="50" height="30" as="geometry" />
        </mxCell>
        <mxCell id="xlh0F6zZwobTiLR0D3bZ-295" value="&lt;font style=&quot;font-size: 14px;&quot;&gt;Альбертина&lt;/font&gt;" style="text;html=1;align=center;verticalAlign=middle;whiteSpace=wrap;rounded=0;" parent="xlh0F6zZwobTiLR0D3bZ-292" vertex="1">
          <mxGeometry x="30.830000000000002" y="40" width="88.33" height="45" as="geometry" />
        </mxCell>
        <mxCell id="xlh0F6zZwobTiLR0D3bZ-296" value="" style="group" parent="1" vertex="1" connectable="0">
          <mxGeometry x="71" y="470" width="150" height="100" as="geometry" />
        </mxCell>
        <mxCell id="xlh0F6zZwobTiLR0D3bZ-297" value="" style="rounded=0;whiteSpace=wrap;html=1;" parent="xlh0F6zZwobTiLR0D3bZ-296" vertex="1">
          <mxGeometry width="150" height="100" as="geometry" />
        </mxCell>
        <mxCell id="xlh0F6zZwobTiLR0D3bZ-298" value="6" style="rounded=0;whiteSpace=wrap;html=1;" parent="xlh0F6zZwobTiLR0D3bZ-296" vertex="1">
          <mxGeometry x="50" width="50" height="30" as="geometry" />
        </mxCell>
        <mxCell id="xlh0F6zZwobTiLR0D3bZ-299" value="&lt;span style=&quot;font-size: 14px;&quot;&gt;Рейксмюсеум&lt;/span&gt;" style="text;html=1;align=center;verticalAlign=middle;whiteSpace=wrap;rounded=0;" parent="xlh0F6zZwobTiLR0D3bZ-296" vertex="1">
          <mxGeometry x="25.830000000000002" y="40" width="98.33" height="45" as="geometry" />
        </mxCell>
        <mxCell id="xlh0F6zZwobTiLR0D3bZ-300" value="" style="group" parent="1" vertex="1" connectable="0">
          <mxGeometry x="491" y="170" width="150" height="100" as="geometry" />
        </mxCell>
        <mxCell id="xlh0F6zZwobTiLR0D3bZ-301" value="" style="rounded=0;whiteSpace=wrap;html=1;" parent="xlh0F6zZwobTiLR0D3bZ-300" vertex="1">
          <mxGeometry width="150" height="100" as="geometry" />
        </mxCell>
        <mxCell id="xlh0F6zZwobTiLR0D3bZ-302" value="3" style="rounded=0;whiteSpace=wrap;html=1;" parent="xlh0F6zZwobTiLR0D3bZ-300" vertex="1">
          <mxGeometry x="50" width="50" height="30" as="geometry" />
        </mxCell>
        <mxCell id="xlh0F6zZwobTiLR0D3bZ-303" value="&lt;font style=&quot;font-size: 14px;&quot;&gt;Прадо&lt;/font&gt;" style="text;html=1;align=center;verticalAlign=middle;whiteSpace=wrap;rounded=0;" parent="xlh0F6zZwobTiLR0D3bZ-300" vertex="1">
          <mxGeometry x="41.66666666666667" y="40" width="66.66666666666667" height="45" as="geometry" />
        </mxCell>
        <mxCell id="xlh0F6zZwobTiLR0D3bZ-304" value="" style="group" parent="1" vertex="1" connectable="0">
          <mxGeometry x="70" y="170" width="150" height="100" as="geometry" />
        </mxCell>
        <mxCell id="xlh0F6zZwobTiLR0D3bZ-305" value="" style="rounded=0;whiteSpace=wrap;html=1;" parent="xlh0F6zZwobTiLR0D3bZ-304" vertex="1">
          <mxGeometry width="150" height="100" as="geometry" />
        </mxCell>
        <mxCell id="xlh0F6zZwobTiLR0D3bZ-306" value="2" style="rounded=0;whiteSpace=wrap;html=1;" parent="xlh0F6zZwobTiLR0D3bZ-304" vertex="1">
          <mxGeometry x="50" width="50" height="30" as="geometry" />
        </mxCell>
        <mxCell id="xlh0F6zZwobTiLR0D3bZ-307" value="&lt;font style=&quot;font-size: 14px;&quot;&gt;Музей ван Гога&lt;/font&gt;" style="text;html=1;align=center;verticalAlign=middle;whiteSpace=wrap;rounded=0;" parent="xlh0F6zZwobTiLR0D3bZ-304" vertex="1">
          <mxGeometry x="35.83" y="40" width="78.33" height="45" as="geometry" />
        </mxCell>
        <mxCell id="xlh0F6zZwobTiLR0D3bZ-308" value="" style="group" parent="1" vertex="1" connectable="0">
          <mxGeometry x="281" y="170" width="150" height="100" as="geometry" />
        </mxCell>
        <mxCell id="xlh0F6zZwobTiLR0D3bZ-309" value="" style="rounded=0;whiteSpace=wrap;html=1;" parent="xlh0F6zZwobTiLR0D3bZ-308" vertex="1">
          <mxGeometry width="150" height="100" as="geometry" />
        </mxCell>
        <mxCell id="xlh0F6zZwobTiLR0D3bZ-310" value="1" style="rounded=0;whiteSpace=wrap;html=1;" parent="xlh0F6zZwobTiLR0D3bZ-308" vertex="1">
          <mxGeometry x="50" width="50" height="30" as="geometry" />
        </mxCell>
        <mxCell id="xlh0F6zZwobTiLR0D3bZ-311" value="&lt;font style=&quot;font-size: 14px;&quot;&gt;Лувр&lt;/font&gt;" style="text;html=1;align=center;verticalAlign=middle;whiteSpace=wrap;rounded=0;" parent="xlh0F6zZwobTiLR0D3bZ-308" vertex="1">
          <mxGeometry x="41.66666666666667" y="40" width="66.66666666666667" height="45" as="geometry" />
        </mxCell>
        <mxCell id="xlh0F6zZwobTiLR0D3bZ-312" style="edgeStyle=orthogonalEdgeStyle;rounded=0;orthogonalLoop=1;jettySize=auto;html=1;exitX=0.5;exitY=0;exitDx=0;exitDy=0;entryX=0;entryY=0.5;entryDx=0;entryDy=0;" parent="1" source="xlh0F6zZwobTiLR0D3bZ-274" target="xlh0F6zZwobTiLR0D3bZ-261" edge="1">
          <mxGeometry relative="1" as="geometry" />
        </mxCell>
        <mxCell id="xlh0F6zZwobTiLR0D3bZ-313" style="edgeStyle=orthogonalEdgeStyle;rounded=0;orthogonalLoop=1;jettySize=auto;html=1;exitX=0.5;exitY=1;exitDx=0;exitDy=0;entryX=1;entryY=0.5;entryDx=0;entryDy=0;" parent="1" source="xlh0F6zZwobTiLR0D3bZ-281" target="xlh0F6zZwobTiLR0D3bZ-263" edge="1">
          <mxGeometry relative="1" as="geometry" />
        </mxCell>
        <mxCell id="xlh0F6zZwobTiLR0D3bZ-314" style="edgeStyle=orthogonalEdgeStyle;rounded=0;orthogonalLoop=1;jettySize=auto;html=1;exitX=0.5;exitY=0;exitDx=0;exitDy=0;entryX=0;entryY=0.5;entryDx=0;entryDy=0;" parent="1" source="xlh0F6zZwobTiLR0D3bZ-278" target="xlh0F6zZwobTiLR0D3bZ-243" edge="1">
          <mxGeometry relative="1" as="geometry" />
        </mxCell>
        <mxCell id="xlh0F6zZwobTiLR0D3bZ-315" style="edgeStyle=orthogonalEdgeStyle;rounded=0;orthogonalLoop=1;jettySize=auto;html=1;exitX=0.5;exitY=1;exitDx=0;exitDy=0;entryX=1;entryY=0.5;entryDx=0;entryDy=0;" parent="1" source="xlh0F6zZwobTiLR0D3bZ-301" target="xlh0F6zZwobTiLR0D3bZ-245" edge="1">
          <mxGeometry relative="1" as="geometry" />
        </mxCell>
        <mxCell id="xlh0F6zZwobTiLR0D3bZ-316" style="edgeStyle=orthogonalEdgeStyle;rounded=0;orthogonalLoop=1;jettySize=auto;html=1;exitX=0.5;exitY=1;exitDx=0;exitDy=0;entryX=1;entryY=0.5;entryDx=0;entryDy=0;" parent="1" source="xlh0F6zZwobTiLR0D3bZ-305" target="xlh0F6zZwobTiLR0D3bZ-239" edge="1">
          <mxGeometry relative="1" as="geometry" />
        </mxCell>
        <mxCell id="xlh0F6zZwobTiLR0D3bZ-317" style="edgeStyle=orthogonalEdgeStyle;rounded=0;orthogonalLoop=1;jettySize=auto;html=1;exitX=0.5;exitY=0;exitDx=0;exitDy=0;entryX=0;entryY=0.5;entryDx=0;entryDy=0;" parent="1" source="xlh0F6zZwobTiLR0D3bZ-298" target="xlh0F6zZwobTiLR0D3bZ-237" edge="1">
          <mxGeometry relative="1" as="geometry" />
        </mxCell>
        <mxCell id="xlh0F6zZwobTiLR0D3bZ-318" style="edgeStyle=orthogonalEdgeStyle;rounded=0;orthogonalLoop=1;jettySize=auto;html=1;exitX=0.5;exitY=1;exitDx=0;exitDy=0;entryX=1;entryY=0.5;entryDx=0;entryDy=0;" parent="1" source="xlh0F6zZwobTiLR0D3bZ-309" target="xlh0F6zZwobTiLR0D3bZ-251" edge="1">
          <mxGeometry relative="1" as="geometry" />
        </mxCell>
        <mxCell id="xlh0F6zZwobTiLR0D3bZ-319" style="edgeStyle=orthogonalEdgeStyle;rounded=0;orthogonalLoop=1;jettySize=auto;html=1;exitX=0.5;exitY=0;exitDx=0;exitDy=0;entryX=0;entryY=0.5;entryDx=0;entryDy=0;" parent="1" source="xlh0F6zZwobTiLR0D3bZ-286" target="xlh0F6zZwobTiLR0D3bZ-249" edge="1">
          <mxGeometry relative="1" as="geometry" />
        </mxCell>
        <mxCell id="xlh0F6zZwobTiLR0D3bZ-320" style="edgeStyle=orthogonalEdgeStyle;rounded=0;orthogonalLoop=1;jettySize=auto;html=1;exitX=0.5;exitY=0;exitDx=0;exitDy=0;entryX=0;entryY=0.5;entryDx=0;entryDy=0;" parent="1" source="xlh0F6zZwobTiLR0D3bZ-290" target="xlh0F6zZwobTiLR0D3bZ-267" edge="1">
          <mxGeometry relative="1" as="geometry" />
        </mxCell>
        <mxCell id="z5_LE_JnLrYJ8BPvHNHW-1" style="edgeStyle=orthogonalEdgeStyle;rounded=0;orthogonalLoop=1;jettySize=auto;html=1;exitX=0.5;exitY=0;exitDx=0;exitDy=0;entryX=0;entryY=0.5;entryDx=0;entryDy=0;" edge="1" parent="1" source="xlh0F6zZwobTiLR0D3bZ-294" target="xlh0F6zZwobTiLR0D3bZ-255">
          <mxGeometry relative="1" as="geometry" />
        </mxCell>
      </root>
    </mxGraphModel>
  </diagram>
  <diagram name="LivedInCountry" id="ARTaQtfHdfieHQEIiI9Y">
    <mxGraphModel dx="800" dy="463" grid="1" gridSize="10" guides="1" tooltips="1" connect="1" arrows="1" fold="1" page="1" pageScale="1" pageWidth="827" pageHeight="1169" math="0" shadow="0">
      <root>
        <mxCell id="0" />
        <mxCell id="1" parent="0" />
        <mxCell id="IRiKDIau6cDt2NcgWyHa-1" value="" style="group" parent="1" vertex="1" connectable="0">
          <mxGeometry x="65" y="420" width="120" height="120" as="geometry" />
        </mxCell>
        <mxCell id="IRiKDIau6cDt2NcgWyHa-2" value="" style="ellipse;whiteSpace=wrap;html=1;aspect=fixed;" parent="IRiKDIau6cDt2NcgWyHa-1" vertex="1">
          <mxGeometry width="120" height="120" as="geometry" />
        </mxCell>
        <mxCell id="IRiKDIau6cDt2NcgWyHa-3" value="1" style="ellipse;whiteSpace=wrap;html=1;aspect=fixed;" parent="IRiKDIau6cDt2NcgWyHa-1" vertex="1">
          <mxGeometry x="35" width="50" height="50" as="geometry" />
        </mxCell>
        <mxCell id="IRiKDIau6cDt2NcgWyHa-4" value="Леонардо да Винчи" style="text;html=1;align=center;verticalAlign=middle;whiteSpace=wrap;rounded=0;" parent="IRiKDIau6cDt2NcgWyHa-1" vertex="1">
          <mxGeometry x="15" y="60" width="90" height="30" as="geometry" />
        </mxCell>
        <mxCell id="IRiKDIau6cDt2NcgWyHa-5" value="" style="group" parent="1" vertex="1" connectable="0">
          <mxGeometry x="205" y="420" width="120" height="120" as="geometry" />
        </mxCell>
        <mxCell id="IRiKDIau6cDt2NcgWyHa-6" value="" style="ellipse;whiteSpace=wrap;html=1;aspect=fixed;" parent="IRiKDIau6cDt2NcgWyHa-5" vertex="1">
          <mxGeometry width="120" height="120" as="geometry" />
        </mxCell>
        <mxCell id="IRiKDIau6cDt2NcgWyHa-7" value="2" style="ellipse;whiteSpace=wrap;html=1;aspect=fixed;" parent="IRiKDIau6cDt2NcgWyHa-5" vertex="1">
          <mxGeometry x="35" width="50" height="50" as="geometry" />
        </mxCell>
        <mxCell id="IRiKDIau6cDt2NcgWyHa-8" value="Винсент ван Гог" style="text;html=1;align=center;verticalAlign=middle;whiteSpace=wrap;rounded=0;" parent="IRiKDIau6cDt2NcgWyHa-5" vertex="1">
          <mxGeometry x="12.5" y="60" width="95" height="30" as="geometry" />
        </mxCell>
        <mxCell id="IRiKDIau6cDt2NcgWyHa-9" value="" style="group" parent="1" vertex="1" connectable="0">
          <mxGeometry x="345" y="420" width="120" height="120" as="geometry" />
        </mxCell>
        <mxCell id="IRiKDIau6cDt2NcgWyHa-10" value="" style="ellipse;whiteSpace=wrap;html=1;aspect=fixed;" parent="IRiKDIau6cDt2NcgWyHa-9" vertex="1">
          <mxGeometry width="120" height="120" as="geometry" />
        </mxCell>
        <mxCell id="IRiKDIau6cDt2NcgWyHa-11" value="3" style="ellipse;whiteSpace=wrap;html=1;aspect=fixed;" parent="IRiKDIau6cDt2NcgWyHa-9" vertex="1">
          <mxGeometry x="35" width="50" height="50" as="geometry" />
        </mxCell>
        <mxCell id="IRiKDIau6cDt2NcgWyHa-12" value="Пабло Пикассо" style="text;html=1;align=center;verticalAlign=middle;whiteSpace=wrap;rounded=0;" parent="IRiKDIau6cDt2NcgWyHa-9" vertex="1">
          <mxGeometry x="22" y="60" width="76" height="30" as="geometry" />
        </mxCell>
        <mxCell id="IRiKDIau6cDt2NcgWyHa-13" value="" style="group" parent="1" vertex="1" connectable="0">
          <mxGeometry x="485" y="420" width="120" height="120" as="geometry" />
        </mxCell>
        <mxCell id="IRiKDIau6cDt2NcgWyHa-14" value="" style="ellipse;whiteSpace=wrap;html=1;aspect=fixed;" parent="IRiKDIau6cDt2NcgWyHa-13" vertex="1">
          <mxGeometry width="120" height="120" as="geometry" />
        </mxCell>
        <mxCell id="IRiKDIau6cDt2NcgWyHa-15" value="4" style="ellipse;whiteSpace=wrap;html=1;aspect=fixed;" parent="IRiKDIau6cDt2NcgWyHa-13" vertex="1">
          <mxGeometry x="35" width="50" height="50" as="geometry" />
        </mxCell>
        <mxCell id="IRiKDIau6cDt2NcgWyHa-16" value="Клод Моне" style="text;html=1;align=center;verticalAlign=middle;whiteSpace=wrap;rounded=0;" parent="IRiKDIau6cDt2NcgWyHa-13" vertex="1">
          <mxGeometry x="17.5" y="60" width="85" height="30" as="geometry" />
        </mxCell>
        <mxCell id="IRiKDIau6cDt2NcgWyHa-17" value="" style="group" parent="1" vertex="1" connectable="0">
          <mxGeometry x="345" y="720" width="120" height="120" as="geometry" />
        </mxCell>
        <mxCell id="IRiKDIau6cDt2NcgWyHa-18" value="" style="ellipse;whiteSpace=wrap;html=1;aspect=fixed;" parent="IRiKDIau6cDt2NcgWyHa-17" vertex="1">
          <mxGeometry width="120" height="120" as="geometry" />
        </mxCell>
        <mxCell id="IRiKDIau6cDt2NcgWyHa-19" value="5" style="ellipse;whiteSpace=wrap;html=1;aspect=fixed;" parent="IRiKDIau6cDt2NcgWyHa-17" vertex="1">
          <mxGeometry x="35" width="50" height="50" as="geometry" />
        </mxCell>
        <mxCell id="IRiKDIau6cDt2NcgWyHa-20" value="Сальвадор Дали" style="text;html=1;align=center;verticalAlign=middle;whiteSpace=wrap;rounded=0;" parent="IRiKDIau6cDt2NcgWyHa-17" vertex="1">
          <mxGeometry x="30" y="60" width="60" height="30" as="geometry" />
        </mxCell>
        <mxCell id="IRiKDIau6cDt2NcgWyHa-21" value="" style="group" parent="1" vertex="1" connectable="0">
          <mxGeometry x="205" y="720" width="120" height="120" as="geometry" />
        </mxCell>
        <mxCell id="IRiKDIau6cDt2NcgWyHa-22" value="" style="ellipse;whiteSpace=wrap;html=1;aspect=fixed;" parent="IRiKDIau6cDt2NcgWyHa-21" vertex="1">
          <mxGeometry width="120" height="120" as="geometry" />
        </mxCell>
        <mxCell id="IRiKDIau6cDt2NcgWyHa-23" value="6" style="ellipse;whiteSpace=wrap;html=1;aspect=fixed;" parent="IRiKDIau6cDt2NcgWyHa-21" vertex="1">
          <mxGeometry x="35" width="50" height="50" as="geometry" />
        </mxCell>
        <mxCell id="IRiKDIau6cDt2NcgWyHa-24" value="Рембрандт" style="text;html=1;align=center;verticalAlign=middle;whiteSpace=wrap;rounded=0;" parent="IRiKDIau6cDt2NcgWyHa-21" vertex="1">
          <mxGeometry x="10" y="60" width="110" height="30" as="geometry" />
        </mxCell>
        <mxCell id="IRiKDIau6cDt2NcgWyHa-25" value="" style="group" parent="1" vertex="1" connectable="0">
          <mxGeometry x="65" y="720" width="120" height="120" as="geometry" />
        </mxCell>
        <mxCell id="IRiKDIau6cDt2NcgWyHa-26" value="" style="ellipse;whiteSpace=wrap;html=1;aspect=fixed;" parent="IRiKDIau6cDt2NcgWyHa-25" vertex="1">
          <mxGeometry width="120" height="120" as="geometry" />
        </mxCell>
        <mxCell id="IRiKDIau6cDt2NcgWyHa-27" value="7" style="ellipse;whiteSpace=wrap;html=1;aspect=fixed;" parent="IRiKDIau6cDt2NcgWyHa-25" vertex="1">
          <mxGeometry x="35" width="50" height="50" as="geometry" />
        </mxCell>
        <mxCell id="IRiKDIau6cDt2NcgWyHa-28" value="Микеланджело" style="text;html=1;align=center;verticalAlign=middle;whiteSpace=wrap;rounded=0;" parent="IRiKDIau6cDt2NcgWyHa-25" vertex="1">
          <mxGeometry x="25" y="60" width="75" height="30" as="geometry" />
        </mxCell>
        <mxCell id="IRiKDIau6cDt2NcgWyHa-29" value="" style="group" parent="1" vertex="1" connectable="0">
          <mxGeometry x="625" y="720" width="120" height="120" as="geometry" />
        </mxCell>
        <mxCell id="IRiKDIau6cDt2NcgWyHa-30" value="" style="ellipse;whiteSpace=wrap;html=1;aspect=fixed;" parent="IRiKDIau6cDt2NcgWyHa-29" vertex="1">
          <mxGeometry width="120" height="120" as="geometry" />
        </mxCell>
        <mxCell id="IRiKDIau6cDt2NcgWyHa-31" value="8" style="ellipse;whiteSpace=wrap;html=1;aspect=fixed;" parent="IRiKDIau6cDt2NcgWyHa-29" vertex="1">
          <mxGeometry x="37" y="2" width="46" height="46" as="geometry" />
        </mxCell>
        <mxCell id="IRiKDIau6cDt2NcgWyHa-32" value="Эдвард Мунк" style="text;html=1;align=center;verticalAlign=middle;whiteSpace=wrap;rounded=0;" parent="IRiKDIau6cDt2NcgWyHa-29" vertex="1">
          <mxGeometry x="19" y="60" width="81" height="30" as="geometry" />
        </mxCell>
        <mxCell id="IRiKDIau6cDt2NcgWyHa-33" value="" style="group" parent="1" vertex="1" connectable="0">
          <mxGeometry x="765" y="420" width="120" height="120" as="geometry" />
        </mxCell>
        <mxCell id="IRiKDIau6cDt2NcgWyHa-34" value="" style="ellipse;whiteSpace=wrap;html=1;aspect=fixed;" parent="IRiKDIau6cDt2NcgWyHa-33" vertex="1">
          <mxGeometry width="120" height="120" as="geometry" />
        </mxCell>
        <mxCell id="IRiKDIau6cDt2NcgWyHa-35" value="9" style="ellipse;whiteSpace=wrap;html=1;aspect=fixed;" parent="IRiKDIau6cDt2NcgWyHa-33" vertex="1">
          <mxGeometry x="35" width="50" height="50" as="geometry" />
        </mxCell>
        <mxCell id="IRiKDIau6cDt2NcgWyHa-36" value="Казимир Малевич" style="text;html=1;align=center;verticalAlign=middle;whiteSpace=wrap;rounded=0;" parent="IRiKDIau6cDt2NcgWyHa-33" vertex="1">
          <mxGeometry x="30" y="60" width="60" height="30" as="geometry" />
        </mxCell>
        <mxCell id="IRiKDIau6cDt2NcgWyHa-37" value="" style="group" parent="1" vertex="1" connectable="0">
          <mxGeometry x="765" y="720" width="120" height="120" as="geometry" />
        </mxCell>
        <mxCell id="IRiKDIau6cDt2NcgWyHa-38" value="" style="ellipse;whiteSpace=wrap;html=1;aspect=fixed;" parent="IRiKDIau6cDt2NcgWyHa-37" vertex="1">
          <mxGeometry width="120" height="120" as="geometry" />
        </mxCell>
        <mxCell id="IRiKDIau6cDt2NcgWyHa-39" value="10" style="ellipse;whiteSpace=wrap;html=1;aspect=fixed;" parent="IRiKDIau6cDt2NcgWyHa-37" vertex="1">
          <mxGeometry x="35" width="50" height="50" as="geometry" />
        </mxCell>
        <mxCell id="IRiKDIau6cDt2NcgWyHa-40" value="Иван Шишкин" style="text;html=1;align=center;verticalAlign=middle;whiteSpace=wrap;rounded=0;" parent="IRiKDIau6cDt2NcgWyHa-37" vertex="1">
          <mxGeometry x="10" y="60" width="105" height="30" as="geometry" />
        </mxCell>
        <mxCell id="ntptgbZB5wZ8awL5aBaW-1" value="" style="group" parent="1" vertex="1" connectable="0">
          <mxGeometry x="60" y="585" width="130" height="90" as="geometry" />
        </mxCell>
        <mxCell id="ntptgbZB5wZ8awL5aBaW-2" value="" style="triangle;whiteSpace=wrap;html=1;rotation=-90;" parent="ntptgbZB5wZ8awL5aBaW-1" vertex="1">
          <mxGeometry x="20" y="-20" width="90" height="130" as="geometry" />
        </mxCell>
        <mxCell id="ntptgbZB5wZ8awL5aBaW-3" value="" style="group" parent="ntptgbZB5wZ8awL5aBaW-1" vertex="1" connectable="0">
          <mxGeometry x="35" width="60" height="41.110000000000014" as="geometry" />
        </mxCell>
        <mxCell id="ntptgbZB5wZ8awL5aBaW-4" value="" style="triangle;whiteSpace=wrap;html=1;rotation=-90;" parent="ntptgbZB5wZ8awL5aBaW-3" vertex="1">
          <mxGeometry x="10" y="-8.889999999999986" width="40" height="57.78" as="geometry" />
        </mxCell>
        <mxCell id="ntptgbZB5wZ8awL5aBaW-5" value="1" style="text;html=1;align=center;verticalAlign=middle;whiteSpace=wrap;rounded=0;" parent="ntptgbZB5wZ8awL5aBaW-3" vertex="1">
          <mxGeometry y="11.110000000000014" width="60" height="30" as="geometry" />
        </mxCell>
        <mxCell id="ntptgbZB5wZ8awL5aBaW-6" value="Италия" style="text;html=1;align=center;verticalAlign=middle;whiteSpace=wrap;rounded=0;" parent="ntptgbZB5wZ8awL5aBaW-1" vertex="1">
          <mxGeometry x="32.5" y="50" width="65" height="30" as="geometry" />
        </mxCell>
        <mxCell id="ntptgbZB5wZ8awL5aBaW-7" value="" style="group" parent="1" vertex="1" connectable="0">
          <mxGeometry x="200" y="585" width="130" height="90" as="geometry" />
        </mxCell>
        <mxCell id="ntptgbZB5wZ8awL5aBaW-8" value="" style="triangle;whiteSpace=wrap;html=1;rotation=-90;" parent="ntptgbZB5wZ8awL5aBaW-7" vertex="1">
          <mxGeometry x="20" y="-20" width="90" height="130" as="geometry" />
        </mxCell>
        <mxCell id="ntptgbZB5wZ8awL5aBaW-9" value="" style="group" parent="ntptgbZB5wZ8awL5aBaW-7" vertex="1" connectable="0">
          <mxGeometry x="35" width="60" height="41.110000000000014" as="geometry" />
        </mxCell>
        <mxCell id="ntptgbZB5wZ8awL5aBaW-10" value="" style="triangle;whiteSpace=wrap;html=1;rotation=-90;" parent="ntptgbZB5wZ8awL5aBaW-9" vertex="1">
          <mxGeometry x="10" y="-8.889999999999986" width="40" height="57.78" as="geometry" />
        </mxCell>
        <mxCell id="ntptgbZB5wZ8awL5aBaW-11" value="2" style="text;html=1;align=center;verticalAlign=middle;whiteSpace=wrap;rounded=0;" parent="ntptgbZB5wZ8awL5aBaW-9" vertex="1">
          <mxGeometry y="11.110000000000014" width="60" height="30" as="geometry" />
        </mxCell>
        <mxCell id="ntptgbZB5wZ8awL5aBaW-12" value="Нидерланды" style="text;html=1;align=center;verticalAlign=middle;whiteSpace=wrap;rounded=0;" parent="ntptgbZB5wZ8awL5aBaW-7" vertex="1">
          <mxGeometry x="32.5" y="50" width="65" height="30" as="geometry" />
        </mxCell>
        <mxCell id="ntptgbZB5wZ8awL5aBaW-13" value="" style="group" parent="1" vertex="1" connectable="0">
          <mxGeometry x="340" y="585" width="130" height="90" as="geometry" />
        </mxCell>
        <mxCell id="ntptgbZB5wZ8awL5aBaW-14" value="" style="triangle;whiteSpace=wrap;html=1;rotation=-90;" parent="ntptgbZB5wZ8awL5aBaW-13" vertex="1">
          <mxGeometry x="20" y="-20" width="90" height="130" as="geometry" />
        </mxCell>
        <mxCell id="ntptgbZB5wZ8awL5aBaW-15" value="" style="group" parent="ntptgbZB5wZ8awL5aBaW-13" vertex="1" connectable="0">
          <mxGeometry x="35" width="60" height="41.110000000000014" as="geometry" />
        </mxCell>
        <mxCell id="ntptgbZB5wZ8awL5aBaW-16" value="" style="triangle;whiteSpace=wrap;html=1;rotation=-90;" parent="ntptgbZB5wZ8awL5aBaW-15" vertex="1">
          <mxGeometry x="10" y="-8.889999999999986" width="40" height="57.78" as="geometry" />
        </mxCell>
        <mxCell id="ntptgbZB5wZ8awL5aBaW-17" value="3" style="text;html=1;align=center;verticalAlign=middle;whiteSpace=wrap;rounded=0;" parent="ntptgbZB5wZ8awL5aBaW-15" vertex="1">
          <mxGeometry y="11.110000000000014" width="60" height="30" as="geometry" />
        </mxCell>
        <mxCell id="ntptgbZB5wZ8awL5aBaW-18" value="Испания" style="text;html=1;align=center;verticalAlign=middle;whiteSpace=wrap;rounded=0;" parent="ntptgbZB5wZ8awL5aBaW-13" vertex="1">
          <mxGeometry x="32.5" y="50" width="65" height="30" as="geometry" />
        </mxCell>
        <mxCell id="ntptgbZB5wZ8awL5aBaW-19" value="" style="group" parent="1" vertex="1" connectable="0">
          <mxGeometry x="480" y="585" width="130" height="90" as="geometry" />
        </mxCell>
        <mxCell id="ntptgbZB5wZ8awL5aBaW-20" value="" style="triangle;whiteSpace=wrap;html=1;rotation=-90;" parent="ntptgbZB5wZ8awL5aBaW-19" vertex="1">
          <mxGeometry x="20" y="-20" width="90" height="130" as="geometry" />
        </mxCell>
        <mxCell id="ntptgbZB5wZ8awL5aBaW-21" value="" style="group" parent="ntptgbZB5wZ8awL5aBaW-19" vertex="1" connectable="0">
          <mxGeometry x="35" width="60" height="41.110000000000014" as="geometry" />
        </mxCell>
        <mxCell id="ntptgbZB5wZ8awL5aBaW-22" value="" style="triangle;whiteSpace=wrap;html=1;rotation=-90;" parent="ntptgbZB5wZ8awL5aBaW-21" vertex="1">
          <mxGeometry x="10" y="-8.889999999999986" width="40" height="57.78" as="geometry" />
        </mxCell>
        <mxCell id="ntptgbZB5wZ8awL5aBaW-23" value="4" style="text;html=1;align=center;verticalAlign=middle;whiteSpace=wrap;rounded=0;" parent="ntptgbZB5wZ8awL5aBaW-21" vertex="1">
          <mxGeometry y="11.110000000000014" width="60" height="30" as="geometry" />
        </mxCell>
        <mxCell id="ntptgbZB5wZ8awL5aBaW-24" value="Франция" style="text;html=1;align=center;verticalAlign=middle;whiteSpace=wrap;rounded=0;" parent="ntptgbZB5wZ8awL5aBaW-19" vertex="1">
          <mxGeometry x="32.5" y="50" width="65" height="30" as="geometry" />
        </mxCell>
        <mxCell id="ntptgbZB5wZ8awL5aBaW-49" value="" style="group" parent="1" vertex="1" connectable="0">
          <mxGeometry x="760" y="585" width="130" height="90" as="geometry" />
        </mxCell>
        <mxCell id="ntptgbZB5wZ8awL5aBaW-50" value="" style="triangle;whiteSpace=wrap;html=1;rotation=-90;" parent="ntptgbZB5wZ8awL5aBaW-49" vertex="1">
          <mxGeometry x="20" y="-20" width="90" height="130" as="geometry" />
        </mxCell>
        <mxCell id="ntptgbZB5wZ8awL5aBaW-51" value="" style="group" parent="ntptgbZB5wZ8awL5aBaW-49" vertex="1" connectable="0">
          <mxGeometry x="35" width="60" height="41.110000000000014" as="geometry" />
        </mxCell>
        <mxCell id="ntptgbZB5wZ8awL5aBaW-52" value="" style="triangle;whiteSpace=wrap;html=1;rotation=-90;" parent="ntptgbZB5wZ8awL5aBaW-51" vertex="1">
          <mxGeometry x="10" y="-8.889999999999986" width="40" height="57.78" as="geometry" />
        </mxCell>
        <mxCell id="ntptgbZB5wZ8awL5aBaW-53" value="6" style="text;html=1;align=center;verticalAlign=middle;whiteSpace=wrap;rounded=0;" parent="ntptgbZB5wZ8awL5aBaW-51" vertex="1">
          <mxGeometry y="11.110000000000014" width="60" height="30" as="geometry" />
        </mxCell>
        <mxCell id="ntptgbZB5wZ8awL5aBaW-54" value="Россия" style="text;html=1;align=center;verticalAlign=middle;whiteSpace=wrap;rounded=0;" parent="ntptgbZB5wZ8awL5aBaW-49" vertex="1">
          <mxGeometry x="32.5" y="50" width="65" height="30" as="geometry" />
        </mxCell>
        <mxCell id="ntptgbZB5wZ8awL5aBaW-55" value="" style="group" parent="1" vertex="1" connectable="0">
          <mxGeometry x="620" y="585" width="130" height="90" as="geometry" />
        </mxCell>
        <mxCell id="ntptgbZB5wZ8awL5aBaW-56" value="" style="triangle;whiteSpace=wrap;html=1;rotation=-90;" parent="ntptgbZB5wZ8awL5aBaW-55" vertex="1">
          <mxGeometry x="20" y="-20" width="90" height="130" as="geometry" />
        </mxCell>
        <mxCell id="ntptgbZB5wZ8awL5aBaW-57" value="" style="group" parent="ntptgbZB5wZ8awL5aBaW-55" vertex="1" connectable="0">
          <mxGeometry x="35" width="60" height="41.110000000000014" as="geometry" />
        </mxCell>
        <mxCell id="ntptgbZB5wZ8awL5aBaW-58" value="" style="triangle;whiteSpace=wrap;html=1;rotation=-90;" parent="ntptgbZB5wZ8awL5aBaW-57" vertex="1">
          <mxGeometry x="10" y="-8.889999999999986" width="40" height="57.78" as="geometry" />
        </mxCell>
        <mxCell id="ntptgbZB5wZ8awL5aBaW-59" value="5" style="text;html=1;align=center;verticalAlign=middle;whiteSpace=wrap;rounded=0;" parent="ntptgbZB5wZ8awL5aBaW-57" vertex="1">
          <mxGeometry y="11.110000000000014" width="60" height="30" as="geometry" />
        </mxCell>
        <mxCell id="ntptgbZB5wZ8awL5aBaW-60" value="Норвегия" style="text;html=1;align=center;verticalAlign=middle;whiteSpace=wrap;rounded=0;" parent="ntptgbZB5wZ8awL5aBaW-55" vertex="1">
          <mxGeometry x="32.5" y="50" width="65" height="30" as="geometry" />
        </mxCell>
        <mxCell id="ntptgbZB5wZ8awL5aBaW-62" style="edgeStyle=orthogonalEdgeStyle;rounded=0;orthogonalLoop=1;jettySize=auto;html=1;exitX=0.5;exitY=0;exitDx=0;exitDy=0;entryX=0;entryY=0.5;entryDx=0;entryDy=0;" parent="1" source="IRiKDIau6cDt2NcgWyHa-27" target="ntptgbZB5wZ8awL5aBaW-2" edge="1">
          <mxGeometry relative="1" as="geometry" />
        </mxCell>
        <mxCell id="ntptgbZB5wZ8awL5aBaW-63" style="edgeStyle=orthogonalEdgeStyle;rounded=0;orthogonalLoop=1;jettySize=auto;html=1;exitX=0.5;exitY=1;exitDx=0;exitDy=0;entryX=1;entryY=0.5;entryDx=0;entryDy=0;" parent="1" source="IRiKDIau6cDt2NcgWyHa-2" target="ntptgbZB5wZ8awL5aBaW-4" edge="1">
          <mxGeometry relative="1" as="geometry" />
        </mxCell>
        <mxCell id="ntptgbZB5wZ8awL5aBaW-64" style="edgeStyle=orthogonalEdgeStyle;rounded=0;orthogonalLoop=1;jettySize=auto;html=1;exitX=0.5;exitY=0;exitDx=0;exitDy=0;entryX=0;entryY=0.5;entryDx=0;entryDy=0;" parent="1" source="IRiKDIau6cDt2NcgWyHa-23" target="ntptgbZB5wZ8awL5aBaW-8" edge="1">
          <mxGeometry relative="1" as="geometry" />
        </mxCell>
        <mxCell id="ntptgbZB5wZ8awL5aBaW-65" style="edgeStyle=orthogonalEdgeStyle;rounded=0;orthogonalLoop=1;jettySize=auto;html=1;exitX=0.5;exitY=1;exitDx=0;exitDy=0;entryX=1;entryY=0.5;entryDx=0;entryDy=0;" parent="1" source="IRiKDIau6cDt2NcgWyHa-6" target="ntptgbZB5wZ8awL5aBaW-10" edge="1">
          <mxGeometry relative="1" as="geometry" />
        </mxCell>
        <mxCell id="ntptgbZB5wZ8awL5aBaW-66" style="edgeStyle=orthogonalEdgeStyle;rounded=0;orthogonalLoop=1;jettySize=auto;html=1;exitX=0.5;exitY=0;exitDx=0;exitDy=0;entryX=0;entryY=0.5;entryDx=0;entryDy=0;" parent="1" source="IRiKDIau6cDt2NcgWyHa-19" target="ntptgbZB5wZ8awL5aBaW-14" edge="1">
          <mxGeometry relative="1" as="geometry" />
        </mxCell>
        <mxCell id="ntptgbZB5wZ8awL5aBaW-67" style="edgeStyle=orthogonalEdgeStyle;rounded=0;orthogonalLoop=1;jettySize=auto;html=1;exitX=0.5;exitY=1;exitDx=0;exitDy=0;entryX=1;entryY=0.5;entryDx=0;entryDy=0;" parent="1" source="IRiKDIau6cDt2NcgWyHa-10" target="ntptgbZB5wZ8awL5aBaW-16" edge="1">
          <mxGeometry relative="1" as="geometry" />
        </mxCell>
        <mxCell id="ntptgbZB5wZ8awL5aBaW-68" style="edgeStyle=orthogonalEdgeStyle;rounded=0;orthogonalLoop=1;jettySize=auto;html=1;exitX=0.5;exitY=1;exitDx=0;exitDy=0;entryX=1;entryY=0.5;entryDx=0;entryDy=0;" parent="1" source="IRiKDIau6cDt2NcgWyHa-14" target="ntptgbZB5wZ8awL5aBaW-22" edge="1">
          <mxGeometry relative="1" as="geometry" />
        </mxCell>
        <mxCell id="ntptgbZB5wZ8awL5aBaW-69" style="edgeStyle=orthogonalEdgeStyle;rounded=0;orthogonalLoop=1;jettySize=auto;html=1;exitX=0.5;exitY=0;exitDx=0;exitDy=0;entryX=0;entryY=0.5;entryDx=0;entryDy=0;" parent="1" source="IRiKDIau6cDt2NcgWyHa-30" target="ntptgbZB5wZ8awL5aBaW-56" edge="1">
          <mxGeometry relative="1" as="geometry" />
        </mxCell>
        <mxCell id="ntptgbZB5wZ8awL5aBaW-70" style="edgeStyle=orthogonalEdgeStyle;rounded=0;orthogonalLoop=1;jettySize=auto;html=1;exitX=0.5;exitY=1;exitDx=0;exitDy=0;entryX=1;entryY=0.5;entryDx=0;entryDy=0;" parent="1" source="IRiKDIau6cDt2NcgWyHa-34" target="ntptgbZB5wZ8awL5aBaW-52" edge="1">
          <mxGeometry relative="1" as="geometry" />
        </mxCell>
        <mxCell id="ntptgbZB5wZ8awL5aBaW-71" style="edgeStyle=orthogonalEdgeStyle;rounded=0;orthogonalLoop=1;jettySize=auto;html=1;exitX=0.5;exitY=0;exitDx=0;exitDy=0;entryX=0;entryY=0.5;entryDx=0;entryDy=0;" parent="1" source="IRiKDIau6cDt2NcgWyHa-39" target="ntptgbZB5wZ8awL5aBaW-50" edge="1">
          <mxGeometry relative="1" as="geometry" />
        </mxCell>
      </root>
    </mxGraphModel>
  </diagram>
</mxfile>
